<mxfile host="app.diagrams.net" agent="Mozilla/5.0 (Macintosh; Intel Mac OS X 10_15_7) AppleWebKit/537.36 (KHTML, like Gecko) Chrome/128.0.0.0 Safari/537.36" version="24.7.12">
  <diagram name="Page-1" id="80d4a630-b321-0f5e-ff81-c5a36ef4752d">
    <mxGraphModel dx="2375" dy="2352" grid="1" gridSize="10" guides="1" tooltips="1" connect="1" arrows="1" fold="1" page="1" pageScale="1" pageWidth="1100" pageHeight="850" background="none" math="0" shadow="0">
      <root>
        <mxCell id="0" />
        <mxCell id="1" parent="0" />
        <mxCell id="5c82df7aa0dc6260-13" value="" style="ellipse;whiteSpace=wrap;html=1;rounded=1;shadow=0;comic=0;labelBackgroundColor=none;strokeColor=#6881B3;strokeWidth=2;fillColor=#CCFFCC;fontFamily=Helvetica;fontSize=22;fontColor=#000000;verticalAlign=middle;gradientColor=none;gradientDirection=north;" parent="1" vertex="1">
          <mxGeometry x="1257" y="-127.6" width="720" height="270" as="geometry" />
        </mxCell>
        <mxCell id="o5mqcoUGSECQ9BWpFlMJ-1" value="&lt;h1 style=&quot;line-height: 120%; margin-top: 0px; margin-bottom: 0px;&quot;&gt;&lt;br&gt;&lt;/h1&gt;" style="whiteSpace=wrap;html=1;aspect=fixed;fillColor=#dae8fc;strokeColor=#6c8ebf;" vertex="1" parent="1">
          <mxGeometry x="160" y="-332" width="720" height="720" as="geometry" />
        </mxCell>
        <mxCell id="o5mqcoUGSECQ9BWpFlMJ-2" value="" style="dashed=0;outlineConnect=0;html=1;align=center;labelPosition=center;verticalLabelPosition=bottom;verticalAlign=top;shape=mxgraph.webicons.github;gradientColor=#DFDEDE" vertex="1" parent="1">
          <mxGeometry x="1548" y="-60" width="102.4" height="102.4" as="geometry" />
        </mxCell>
        <mxCell id="o5mqcoUGSECQ9BWpFlMJ-3" value="" style="shape=image;verticalLabelPosition=bottom;labelBackgroundColor=default;verticalAlign=top;aspect=fixed;imageAspect=0;image=data:image/png,iVBORw0KGgoAAAANSUhEUgAAAT4AAAE4CAYAAADCYZ8tAAAKrWlDQ1BJQ0MgUHJvZmlsZQAASImVlwdQU1kXgO976SGhJYQiJfQmSCeAlBBaKNKrjZAECCWEQACxI4srsBZURMACVkTBtQCyFkQUC4tg7xtkUVDWxYKoqPwPGMLu/vP///xn5sz53nnnnnvunXfvnAcAWZEjEqXBigCkC7PFYb6e9JjYODpuEBAADlCBC3DicLNEzJCQQIDIjP27fLwHoEl722Iy17+//6+ixONncQGAQhBO4GVx0xE+hegrrkicDQBqL+LXz80WTXIHwlQxUiDCDyY5aZqHJzlhitFgKiYijIUwFQA8icMRJwFAoiN+eg43CclD8kDYSsgTCBEWIeyWnp7BQ/g4wiZIDOIjTeZnJPwlT9LfcibIcnI4STKeXsuU4L0EWaI0zrL/czv+t6SnSWbmMEKUlCz2C0OsMrJnD1IzAmQsTFgQPMMC3lT8FCdL/CJnmJvFipthHscrQDY2bUHgDCcKfNiyPNnsiBnmZ3mHz7A4I0w2V6KYxZxhjnh2XklqpMyfzGfL8ucnR0TPcI4gasEMZ6WGB8zGsGR+sSRMVj9f6Os5O6+PbO3pWX9Zr4AtG5udHOEnWztntn6+kDmbMytGVhuP7+U9GxMpixdle8rmEqWFyOL5ab4yf1ZOuGxsNvJBzo4Nke1hCsc/ZIYBC2SANETFgA4CkScvALL5edmTC2FliJaJBUnJ2XQmcsL4dLaQazmXbmNlYwfA5Hmd/hze06bOIUS7Putb5wiAa+HExMTZWV/AAQBOxgJAvDPrM/4MgII+AFd3cyXinGnf1FnCACJQQG4CdaAN9IEJsAA2wAG5FzyAN/AHwSACxIIlgAuSQTpSeS5YAdaCIlACNoPtoBLsAfvAYXAMnADN4Cy4CK6AG6AH3AWPgRQMgNdgBHwE4xAE4SAyRIHUIR3IEDKHbCAG5AZ5Q4FQGBQLxUNJkBCSQCugdVAJVAZVQjVQHfQzdAa6CF2DeqGHUB80BL2DvsAomARTYS3YCJ4HM2AmHABHwIvhJDgTzocL4Y1wBVwLH4Wb4IvwDfguLIVfw6MogJJD0VC6KAsUA8VCBaPiUIkoMWoVqhhVjqpFNaBaUZ2o2ygpahj1GY1FU9B0tAXaBe2HjkRz0ZnoVehSdCX6MLoJ3YG+je5Dj6C/Y8gYTYw5xhnDxsRgkjC5mCJMOeYg5jTmMuYuZgDzEYvF0rDGWEesHzYWm4Jdji3F7sI2Ytuwvdh+7CgOh1PHmeNcccE4Di4bV4TbiTuKu4C7hRvAfcLL4XXwNngffBxeiC/Al+OP4M/jb+Ff4scJigRDgjMhmMAjLCNsIuwntBJuEgYI40QlojHRlRhBTCGuJVYQG4iXiU+I7+Xk5PTknORC5QRya+Qq5I7LXZXrk/tMUiaZkVikRSQJaSPpEKmN9JD0nkwmG5E9yHHkbPJGch35EvkZ+ZM8Rd5Sni3Pk18tXyXfJH9L/o0CQcFQgamwRCFfoVzhpMJNhWFFgqKRIkuRo7hKsUrxjOJ9xVElipK1UrBSulKp0hGla0qDyjhlI2VvZZ5yofI+5UvK/RQURZ/ConAp6yj7KZcpA1Qs1ZjKpqZQS6jHqN3UERVlFTuVKJU8lSqVcypSGopmRGPT0mibaCdo92hfVLVUmap81Q2qDaq3VMfU5qh5qPHVitUa1e6qfVGnq3urp6pvUW9Wf6qB1jDTCNXI1ditcVljeA51jssc7pziOSfmPNKENc00wzSXa+7T7NIc1dLW8tUSae3UuqQ1rE3T9tBO0d6mfV57SIei46Yj0Nmmc0HnFV2FzqSn0SvoHfQRXU1dP12Jbo1ut+64nrFepF6BXqPeU32iPkM/UX+bfrv+iIGOQZDBCoN6g0eGBEOGYbLhDsNOwzEjY6Noo/VGzUaDxmrGbON843rjJyZkE3eTTJNakzumWFOGaarpLtMeM9jM3izZrMrspjls7mAuMN9l3jsXM9dprnBu7dz7FiQLpkWORb1FnyXNMtCywLLZ8s08g3lx87bM65z33creKs1qv9Vja2Vrf+sC61brdzZmNlybKps7tmRbH9vVti22b+3M7fh2u+0e2FPsg+zX27fbf3NwdBA7NDgMORo4xjtWO95nUBkhjFLGVSeMk6fTaqezTp+dHZyznU84/+li4ZLqcsRlcL7xfP78/fP7XfVcOa41rlI3ulu82143qbuuO8e91v25h74Hz+Ogx0umKTOFeZT5xtPKU+x52nOM5cxayWrzQnn5ehV7dXsre0d6V3o/89HzSfKp9xnxtfdd7tvmh/EL8Nvid5+txeay69gj/o7+K/07AkgB4QGVAc8DzQLFga1BcJB/0NagJwsMFwgXNAeDYHbw1uCnIcYhmSG/hGJDQ0KrQl+EWYetCOsMp4QvDT8S/jHCM2JTxONIk0hJZHuUQtSiqLqosWiv6LJoacy8mJUxN2I1YgWxLXG4uKi4g3GjC70Xbl84sMh+UdGie4uNF+ctvrZEY0naknNLFZZylp6Mx8RHxx+J/8oJ5tRyRhPYCdUJI1wWdwf3Nc+Dt403xHfll/FfJromliUOJrkmbU0aSnZPLk8eFrAElYK3KX4pe1LGUoNTD6VOpEWnNabj0+PTzwiVhanCjgztjLyMXpG5qEgkzXTO3J45Ig4QH8yCshZntWRTkcaoS2Ii+UHSl+OWU5XzKTcq92SeUp4wr2uZ2bINy17m++QfWI5ezl3evkJ3xdoVfSuZK2tWQasSVrWv1l9duHpgje+aw2uJa1PX/lpgVVBW8GFd9LrWQq3CNYX9P/j+UF8kXyQuur/eZf2eH9E/Cn7s3mC7YeeG78W84uslViXlJV9LuaXXf7L+qeKniY2JG7s3OWzavRm7Wbj53hb3LYfLlMryy/q3Bm1t2kbfVrztw/al26+V25Xv2UHcIdkhrQisaNlpsHPzzq+VyZV3qzyrGqs1qzdUj+3i7bq122N3wx6tPSV7vuwV7H1Q41vTVGtUW74Puy9n34v9Ufs7DzAO1B3UOFhy8Nsh4SHp4bDDHXWOdXVHNI9sqofrJfVDRxcd7TnmdaylwaKhppHWWHIcHJccf/Vz/M/3TgScaD/JONlwyvBU9WnK6eImqGlZ00hzcrO0Jbal94z/mfZWl9bTv1j+cuis7tmqcyrnNp0nni88P3Eh/8Jom6ht+GLSxf72pe2PL8VcutMR2tF9OeDy1Ss+Vy51MjsvXHW9evaa87Uz1xnXm2843Gjqsu86/av9r6e7HbqbbjrebOlx6mntnd97/pb7rYu3vW5fucO+c+Pugru99yLvPbi/6L70Ae/B4MO0h28f5Twaf7zmCeZJ8VPFp+XPNJ/V/mb6W6PUQXquz6uv63n488f93P7Xv2f9/nWg8AX5RflLnZd1gzaDZ4d8hnpeLXw18Fr0eny46A+lP6rfmLw59afHn10jMSMDb8VvJ96Vvld/f+iD3Yf20ZDRZx/TP46PFX9S/3T4M+Nz55foLy/Hc7/ivlZ8M/3W+j3g+5OJ9IkJEUfMmWoFUIjCiYkAvDsEABnpHSg9SP+wcLqfnhJo+h9gisB/4umee0ocAGhAzGRbxGoD4DiiRmsAkEeeJ1uiCA8A29rKdKb3nerTJwWL/LHs9Zqkh1tDa8A/ZLqH/0vd/7RgMqsd+Kf9F9tVBvMgzcPUAAAAlmVYSWZNTQAqAAAACAAFARIAAwAAAAEAAQAAARoABQAAAAEAAABKARsABQAAAAEAAABSASgAAwAAAAEAAgAAh2kABAAAAAEAAABaAAAAAAAAAJAAAAABAAAAkAAAAAEAA5KGAAcAAAASAAAAhKACAAQAAAABAAABPqADAAQAAAABAAABOAAAAABBU0NJSQAAAFNjcmVlbnNob3Sqvm8ZAAAACXBIWXMAABYlAAAWJQFJUiTwAAAC22lUWHRYTUw6Y29tLmFkb2JlLnhtcAAAAAAAPHg6eG1wbWV0YSB4bWxuczp4PSJhZG9iZTpuczptZXRhLyIgeDp4bXB0az0iWE1QIENvcmUgNi4wLjAiPgogICA8cmRmOlJERiB4bWxuczpyZGY9Imh0dHA6Ly93d3cudzMub3JnLzE5OTkvMDIvMjItcmRmLXN5bnRheC1ucyMiPgogICAgICA8cmRmOkRlc2NyaXB0aW9uIHJkZjphYm91dD0iIgogICAgICAgICAgICB4bWxuczpleGlmPSJodHRwOi8vbnMuYWRvYmUuY29tL2V4aWYvMS4wLyIKICAgICAgICAgICAgeG1sbnM6dGlmZj0iaHR0cDovL25zLmFkb2JlLmNvbS90aWZmLzEuMC8iPgogICAgICAgICA8ZXhpZjpVc2VyQ29tbWVudD5TY3JlZW5zaG90PC9leGlmOlVzZXJDb21tZW50PgogICAgICAgICA8ZXhpZjpQaXhlbFhEaW1lbnNpb24+MzE4PC9leGlmOlBpeGVsWERpbWVuc2lvbj4KICAgICAgICAgPGV4aWY6UGl4ZWxZRGltZW5zaW9uPjMxMjwvZXhpZjpQaXhlbFlEaW1lbnNpb24+CiAgICAgICAgIDx0aWZmOlJlc29sdXRpb25Vbml0PjI8L3RpZmY6UmVzb2x1dGlvblVuaXQ+CiAgICAgICAgIDx0aWZmOlhSZXNvbHV0aW9uPjE0NC8xPC90aWZmOlhSZXNvbHV0aW9uPgogICAgICAgICA8dGlmZjpZUmVzb2x1dGlvbj4xNDQvMTwvdGlmZjpZUmVzb2x1dGlvbj4KICAgICAgICAgPHRpZmY6T3JpZW50YXRpb24+MTwvdGlmZjpPcmllbnRhdGlvbj4KICAgICAgPC9yZGY6RGVzY3JpcHRpb24+CiAgIDwvcmRmOlJERj4KPC94OnhtcG1ldGE+Cj1CiqIAAEAASURBVHgB7X0JdFzFlfZVL1J3a99ly9q9Idnyih02YwOGsATCDg5hCwlLQiYkzARmkhn+OTOEc/4kszAzZAYyAX5iBggwZIEkBLCNF8B4Qd5tWbYsy5asfW31qv/ektsRsvq97lb363rv3TpHp1tvrfqq6uta7v1uSm/fwChwYgQYAUbARAhYTFRWLiojwAgwAgIBJj5uCIwAI2A6BJj4TFflXGBGgBFg4uM2wAgwAqZDgInPdFXOBWYEGAEmPm4DjAAjYDoEmPhMV+VcYEaAEWDi4zbACDACpkOAic90Vc4FZgQYASY+bgOMACNgOgSY+ExX5VxgRoARYOLjNsAIMAKmQ4CJz3RVzgVmBBgBJj5uA4wAI2A6BJj4TFflXGBGgBFg4uM2wAgwAqZDgInPdFXOBWYEGAEmPm4DjAAjYDoEmPhMV+VcYEaAEWDi4zbACDACpkPAZroSc4ETg8DoKHja28Hbdgp87fjXPwD+zi7w9/VDYHBI/Pl6esDfPyjeH/R4wI//KyVbbi5Y0tLA6sC/jHRIsdvBmu4Ce34efqaDLTcHHBVlYM3MgNSSIkgrLgZISVF6JJ9jBAQCTHzcECJGYNTnAy+S2cjRZhhpaQV/RxeS3SkYOdYCPjw+GggABIMwin+ARCg+gxjEj77jHx7A82NB/SIJ7efv6wOiMR+RmfijD/qOExX8TLHgp9Uydgy/p1itYC/Ih9TCAnCUl4G9uBAcZaXgqKyAVDxOxMmJESAEUji8JDeEyRAIjoyA+0gzeE6cRKI7Bu6mo+A92YYjtn4Y9fogiCRIRDfq94v/BelN9iCNjxH5pdhsguRSbFawINmlpNrBlpUFqdNKkBBngLOqApyzaiAN/7c4HBrnkF8nAwJMfDLUQrLzgKOxwPAwDDbsAc/xEzC4ey9OWdsgMDAIQY8XiAQD7hEkOO/YqC7Z+Y3h/YIQU1OR6Gjq7ACLywk2nCI7ysogDUeF6fNrIa20FKfRuWMjyRjewbfoBwEmPv3UVVxzSkTnbmyC4f0Hx0Z2x1vB19sHwaFh8OEUM4hER1NUIyeaKltcLlwvRBLMyQErkqGjolyMCF1zZ4NzZjUecxkZAtOWjYnPJFVPU1Ivrse5Dx8R01YxdaVNiK5u3IDoE5sPJoFCsZi0iWLLzhYbKKnFRWKN0FlTDa7ZM8UGCk2jOekfASY+/ddh2BLQZoSn9SQMHzgEbtyQ8OCoznOiDTciOsHX3YPrc7gZwSksArRGSGuD9qJCSCspFqNBF64N0vogrRVy0i8CTHz6rbuwOaeRnaflOAzhNHYYp7MjtDGBxwI4jZVlEyJs5iU+YcvKxHXA6acJsBoctElSXQU0MuSkLwSY+PRVX5PnFtfigrjxMHywUYzuRppbgP7ch5vAj+t2wqxk8jv5aAwI0NqgFUnQiWYyNPpzzayB9Lq5YmRow6myML2J4bl8i3YIMPFph3Xc3yTW7U51wAianYw0H4OBnbtgYMdnYmRn9I2JuIMZ4wOJBG15uZC1bCmkzZgOGbVzIQ2nwWRLyOuBMYKqwW1MfBqAHO9XkNcDTV3Jvm5gZwMMfLoDhg8djvdr+HkxIJAxrxYy6utwBFiLhtPlY7aCTrYVjAHKhN7CxJdQeOP4cPSG8KNdnQ9HeG70lCCy6/90u7C7i+Nb+FFxQoBGfBmLF0L2+cuBNkRoHZDMZTjJgQATnxz1ED4XRHjo60ojvMGGXdC7YQsM7d2P5idjPq/hb+QzMiBgzciArHMXQ+4lKyAdbQNteehnzASY9Kph4kt6FYTPQGBoSPjA9m/dDt1/fF/s0pKJCif9IUCiChmL6iH/i5dBxvw6NJPJZHe5JFYjE18SwQ/3atqhJTexnnfXQcevfycMjmkjg5P+EbA4nZCO64CF110lRoLkK2xBVzpO2iLAxKct3spvQ+WS0WAAetdvhPZX3kDzlEPCV1b5Jj6rRwQsaaloCjMLim+9AXIvvmBsB5iUZzhpggATnyYwR/ASJL3BXbuh/eVfQf+2HWySEgFkur8EiY70Bp3VlVDx198DFxpDsw2gNrXKxKcNzmHfQm5jI+hK1vbiy9C35WOhkjLqw2mtwQUCwgJiwhOkHENrfnmXXgwFN10PDvQOIXc5TolDgIkvcdiqPpn8ZTt//TZ0/+kD4UMbdLtV7+ELjIsAbYCQknTeZaug4NqrwI6G0ZwSgwATX2JwVXyqH2XZB7bvhK533oWhPftQgr2X3coUETPPSeEJgpL6zpoqKLnjNjSGnofTYd78iHcLYI2deCOq8DzamSU5qO53P4C+TVvAc7Jd7N4q3MKnTIYA+VULqTCKWYI/iNnnLYdcnALTOiC7wMWvMfCIL35YKj6JprX9H2+Fnvc3CHs8ilHBiRFQQ4BiiJDhc97ll0LWF84VqtFq9/B5dQSY+NQxmvIVw/sPQc8H63Hz4hNwo2oKSbhzYgQiRSAF7fxoxJdz0flo+nKhmAZHei9fNzkCTHyT4xKXo4FhNwygaUrPn9YJExWawnBiBGJFIBUFUTMXLYCcFReI0R+7vsWKJEdZix05lTtJOYVEBGjHdvhAI6/lqeDFpyNDgEJkkuhB/pWrIXPpIqEJGNmdfNV4BHhzYzwacfg+6vehAOhR6Hr7D9CzYbNQU2Eh0DgAy48QCJCvNgWI8nV3Yzzj41Bw9RU49aWND44ZHE0T4aluNGipXEv+tf2ffIqjvHW4nreVFVRU8OLTU0OAlF+yzzsX7f5WCiFUjhEcOZ5MfJFjFf5K9LLw9/UDqai0/tcvROBtjm0RHi4+Ez8EyOuDAqWXPngfZC6YB3a0AQRUheakjAATnzI+qmeJ4Lxt7dC76SM48dwLY2Ea2d1MFTe+II4IINGlotlL4Q3XCrc3IkIiRE7hEWDiC4+N6hkySPa0oJ/t2teg87fvqF7PFzACiUag4JoroWTNzZBWVsoGzwpg8+aGAjhKp2iR2Y07t23P/xK631+vdCmfYwQ0Q4B+gIPDw1By1xpwYvhL2gXmdDYCPOI7GxPVIyQUOojRzI7/+3MY5KdR9Xq+gBHQGgHHjFIoe+QhNHlZzEKnk4DPxDcJKEqHyCi5Z92H0Pqf/w2+jk6Wj1ICi88lDwHU+rMXFEDpA/dC7sqLOM7HhJrgqe4EQJT+DQwNC1OVthfXilgYrJmnhBafSyoCuMHm6+qCkz9/EUjfkUxerOmupGZJppcz8UVYGz5Uyuj+w3vQ8eZvxC4uoIoGJ0ZAagSwjZLFQfvaV2E04If8Ky5F8kuXOstaZY6nuhEg7etBwdC33obO37wjwjyyjV4EoPEl0iAwZutXDAVfulL82XNZ4JRHfCrNk+SkOt76HXT97g/gwV9PHumpAManpUOAfqg9J9pQ7fsdHPkFMcLb1aZXd2YTb4VmOkZ6v0W/2z+iaGgbk54CVnxKcgRw2kttmNpyx1u/RV/fHskznNjsMfGFwZemt2Kk9/a74D1xkkkvDE58WEcI0JoftuUubNPUtqmNmzUx8U1S84GhIbGeJ6a32FBYXWUSkPiQLhGgtuwh8sOlG1q3pk07MyYmvgm1TiYrXbh7SxsZPL2dAA7/awwETk97qY2TpQK1ebMlJr5xNU7GySQpdeqVN1BhhTcyxkHDX42GAE17208J8yxq89T2zZSY+E7XNrmhkUcGGSd7MMA3m6yYqRuYs6xit1cEs18r2j71AbMkJj6saRIcGECZ+Naf/bcwWeE1PbM0fy6nWPNDMy1ywST/c+oLZkimJz4R6/ZIM7T803+gGxr63uIUgBMjYCoEsM2T3zmJbpDiEPUJoydTE58Y6pOe3gtrYQSH/Ox7a/TmzuULiwD69pLSEMmskcak0Zd6zEt8tLiLBp0kIsp6emG7A58wGQLUF6hPkI+vkQcCpiU+ITrw3jpWTjZZx+biqiNAYqa9mz4WcWTUr9bnFaYkPoqGNvDZbuh44zf6rDXONSOQYAROPPe8CJ5FfcWIyXTER3FvKQRk6zPPgbezy4h1ymViBKaMQGBwSEQMpL5CfcZoyXTER8G+yWCT1vd4B9dozZnLEzcEcLOD+gj1FeozRkumkqUawa36rrf/IIJ9G33XymgNlcujPQLUR/q2bAVbTg4UpqWCs7JC+0wk6I2mGfGRS04/Gin3bNiMsW8HEwQnP5YRMBYC1Fd6P9yEBv47DOXWZhri6/9oK3S98y74TnUYq2VyaRiBBCPgO9WJU94PYGDbjgS/SbvHm4L43IePQO+GTWigeZglprRrW/wmgyBAbm3DBxqhB9f7hvcfMkSpDL/G5x8YhJ71G2HARH6IhmiZXAipECCzln4c8aWWFIO9qBCl63Okyl+0mTH0iI98DmmK2/vhZvDyFDfatsHXMwKfQ8DX1Y2bHR9D/8dbde/Pa2jiczeh6cof3wP65MQIMAJTR8Dd3AI96Nam9z5lWOILelBf7731MLT/IIyaSGds6k2bn8AIhEeA+hL1qe53PwB//0D4CyU/Y1jiG2zYLYblPvbOkLwJcvb0hgD1qb5NH8HA9s/0lvUz+TUk8VHovLaX/kdoi50pKX9hBBiBuCEgQlW+80cMU9kdt2dq+SDD7eqO+gMYOPltdLM5Yho12VgajNXphLSSIsVbPW2nIOA2biwGS1oaOKaXKGLgRRs2P0bd4/R5BGiXd2jPPtHXSu64HVJs1s9fIPl/hiO+kdYTwtjSb9KweZG2t5wlC2Hhf/6z4uU77/8OdG3coniNnk9mzp0FS9f+XLEIux/9AbSj4TunsxGgPka+vDkrV6A7W/nZF0h8xFhTXXSs7vjVmyiieIoNlSVudJw1YyAwFqMXxXxffBkFP0Z1VSjjEB9JZzcdETu5FBCcEyPACCQegSAuhZBt3+CuPboiP8MQHxkrNz/5E11vsSe+mfIbGIH4IxAYHob2l1/DWVYg/g9P0BMNQXwUD5R8ccmokuWmEtRS+LGMQBgERn3oIYXubD3rNoJeYvMag/hwh6n9lTcg6PGEqRo+zAgwAglDAJeZAkM46qM+qBOpet0THwE9sHU7DB9E1QisAE6MACOQBASw77kPHRIeHXpYY9c98ZHbTMdbb+Noz5uE2uZXMgKMQAgB6oNkQyu8pVDKSuaka+IjVeUh3E0a3L1XZow5b4yAaRCgdfb+T7aBH4MVyZx0bcDsR3eZrt//CWhLnVP8EZh2/TWQe+7i+D9YkiemFhVIkhPjZIOsK7refR8yFtaDLSMdwCLn2Eq3xCdGe6gSMbCjwTitRrKSFH/xMslyxNnRAwKk0jz42S5IRcFSW3aWlFmWk44jgMp36hTqgm3A3SS5h9QRFEXzS6xOF6TmF2r+Xn6hORAY9fmkF//VJfEF3SO4i3tYRHo3R1OKXymJ9LLq66Fg1Yr4PZSfxAhMQGBo7wEYOdYirYmZLomPJHHITYbDRE5obSr/kiILkd6M22+CotUXqVzNpxmB2BGgvkkhKb3tp2J/SALv1B3x0eIpBQYf2LYzgbAY79EWhwOy5tdD2ZqbmfSMV71SlojiWFNfpT4rW9Id8Xk7OmFwz16gT06RIWBJTYNsIr07b4PCyy6M7Ca+ihGYIgKe4ydgYOcuDPQlX1/VF/Ghdbjn2HEYakAlCE4RIZBis0HWvHoov/cOKFx1fkT38EWMQLwQGKBR35Gj0nlV6cqchYwiB/fuZ4PlSFsl2lBlzVsAVQ/dA3nnLYn0rjPXBXF3Tm86a2cyH/piSYEUqxVSJLUnC2XTqJ/Dhw7DSPMxyFy6CEjxWpakK+LzdXSAFxWWOUWGQPb8hVDzF9+AnKX1kd0w4apdjzwO3Zs/nnBUX/9m1tZD9TfvjYn49VVSeXNLtrbp8+ogo75OmkzqiviGdu+Hvo8/lQY8mTOSvWAJ1DxyP+QsrIt5tENyQ3r2gRaj3fvvhJwlsRG/zPWrp7wN7GyArOVLpSI+3azx0bb4cONh8GMENU7KCGQvXAIzv/sAZC84B1LsuvptUy5YFGeJ9Kofvg9d7haCJdUexZ18abwRIMmqEQxE7m3viPejY36ebojP3XQEZW8OcywNlaqmkd7MRx5A05W52OFTVa425ukQ6dFIz+KQZ13JmGhHUCrclKR1PjJoliXph/iONGOc3GZZcJMvH7h4n71gsZjeZtUj6aUx6VmdDvnqyaQ5cjcegeEDB6UJ+aoL4htpOQ7uxiYIoPYep7MRIJOV7PpFUPOdsTU9tZEerdv5+gfPfpCej6SkQGYdbmR862uQu3QBqJFe0OsDXx+3J62q3N/XB8OHmmCk9aRWr1R8jy6Ij6a4wgJccnFDRaQTdFIYJyPpUYen3Vu1NT0ivd4du6Htrd8nKEfaP1bYKtbOx91bJL3li1Wnt0R6/XsOwIlXf619Zk36RgpFSfZ8wwdQKV2CJD3xkbsLCRJ42IzlrOZCbmjZCxZAxde/Ksw11GzVBOlta4Dj/+816Pl461nP0+MBGt1m1s6DygfuhvyLlqluZFAwnP5d+6DlxVcxWPpmPRZZt3mmDcoRXK6SwYVNeuITYOHCKEnMc/ozAiQ4kF2/AMruuh0KViz/84kw386Q3stvQNfmzRD06T8wExnEZtbWQcU9X4HCSy5QNdshDPoa9sHxta9D57oNiMFIGLT4cCIQoN1dz/FW8LYlX7hAeuIbPtCIQLUnoh50+8wxaSkkva/cEpEb2udIb+MmDAGo/w5Po10ivbI7boWiy9Ultmik14cjvdaX34SO99cjBqzarXUHoNCvnhNt4D58ROtXn/U+6YnPfbgJnZzlsf85C0GND4T09EhaKhLBAUF6uKZ3/Jev49ROe9KzpDogxRZfOzqLA+W1kPRm3H4zFF+5SrUGxJrerv1Iem8g6a3TnPRoHdZiM+cu+8TK8XV2ghvX+pKdpCY+itA+0tKK09z+ZOMkxfuj1dOjDt/XsBdaXngFujbh9DYJI72sujpIr6iKG/kJea3aWii97UYoufoS1XoJbWS0vPSrpI30MufMgfSamXHDQLXQEl/gQwcECkhEfTuZSWriIxMWWuMb9QeSiZEU745WTy9I0e13H4DmZ1+C7i1bkraeNe2mq2D6zV8GV1kFigVMzYtErOmdQ6R3E5Lepar1QhgM7G+EY794Gdf0kje9LcK8zlhzE6RX1Zie/KgvU58mu75kJqmJb2jfQfB1dScTHyneHa2eHjWuQezwTU8/Cz2ffJLUjQwrbkBMv+Ua0fGdM8qFUkosoIrdWyQ9WteMZKRHGAwdOgJHf/YCdG3YmJTRbqicVtx5Lrl2NZTjRpSrvHLKPwCh5+r1k/r00L4DSc2+tMQn7H5w65sMH82cotXTGw0EYfBwMxx66l+hb/v2pJJeqN4E+d14NZTfvQYcJTNUd19D94U+CYOMubVIHGsiWtOjtjN0tAUO//RnqC5DO9jJ38wh4i7GqXnlN+4C53T8ATCxTBb1aTJrAXRlS1aSlvh8XT3Cvy8geWDihFbcOD29SExWqCENt5yA/X/zJO5gNkDQ701o9qJ5OLnQTfvyFVD14D2QVlACgJ4WESXyyJhTC5VfvzOi3VvCwH28DQ7+/U+hZ2tyR7sTy0fkV3TFSuFWmFZUGjkGEx+k8/+pT5NZSzLX+aQlPk8rAWNuk4OQnl7u8kXqTZ06fGs77P6LH8LAof0wGkARUcmS6PhXXgI1330I0vKKI8pdJnpkVKFHRsHK8yK63n3yFOx97B9wU2enVMQfyjwpxRSsPB9m/813wJE/LXTYdJ++nj6MvZs8JXVpiW9o117w9/aarkGECjymp/cA5CyapzotountUHMrNHzzcRg+egg3g+QjvVC5aNpbgMbGs77/bUhT6fikslKD0lKkHq06NSTiP9EOe773BAzs2yPFFD9U5omfNPqlMs154i/BUYgjPxOmIO7q0qgvWUla4iMzlsCQOUd80ejpiY2MxqOw99EncF3rEI5y5CU90chxhmtzOSEfvU1mPRae/ELSUpHo6dGa3nDLSdjz6P/BXdy9uJHhSVZ/ivi9VjTAzl22EMnvUVOSH63zDe3dFzFe8b5QSuILjoyApwWDESfZ1ifeYEfyvGj09IS5xr5DuJ71Yxg4iNNb2UkvBACu29ky0iH/wmWTkl+I9CLR0xO7t03HYP8PnoKBvbtP794mb9E8VETVT8TAij8AROxz/g7Jr2C6qdb8AtTHMT429fVkJCmJjwDxDwyaS3Q0Sj29kDdC40+fQXu9XVKu6Sk2aCK/TCQ/FBaY9f2Hcdo7tuExnvRUpaXQTm/wYBM0PvU09H22Q+rp7aRYhMjvC4tg9t99DxzF0e94T/pcPRwMjkIA+7gbdTaTkaQkPpKhCppoYyMWPb0+XBg++rPnoW8HdniJdm+jasShkR9uXMz8q4dx0f8SlIv/esR6egM42m36t59Dz6dbdY0BeeTkX4A/AH/1LXCWmsfOj9wpPSeSo883NVP6qFp55BfTrwANhc2QyDiZ4t5SCEihp6di3xXyvSU3tGQbJ0dSPzQypelois06+eVEfi4XFK1eAc6yUsiqm4XXKjfLkBsaeWR0byavFLnX9GhJgqSYlMpFGx4Fqy7AqboPjv7XCzB87Kh+li4mr1nVozTNJZ3NZCQpR3wjGDQ8OCJ3Y45HZU1FT697y0fSd3jCqGvdFuE6R+QXNuGGB3V8ERxJlfTG6el9iB4ZEhgnhy3X6RPdWz6F3u27BfkpXUumLkVXXAwVGPzdDO5tAfeI8NtVwiRR55R/WhP1VoXnjmIQay+u8Y2ijJCRkxAcmF8PZXfeFqOenj5GxJ0fboYUHNXOuP16HNnODT/yi6CyabQ7Ji31xpieXhJEFyLI5lmX9GBIVIt9LOhRzmI0T1Ig95CHB0k4HV/7Kxg63KjfafxZSHz+APVxbxv2dezzKfb4Kvh8/k1n/ycd8Xk7u4QaC1W8UVNIWqpszc2G19MLuAeh8/0PRFXOuP0GJL85MZGfnvX0Au4hIQlGIKTg1D6bbDPDTf3xGiI/8u0lM53WV96EoUYyUzLeQID6uL+vH6jPp03DzS0Nk3TEJ6SpcZ3DqClEejHp6ZHfqU5GOePrzz88CB3vIfmhkXHZHTdhUKDZUYkVhHawx/T0kqeyMr5M0X4X5PfhJgDczQQrRsSrr1Ulv2nXXSFeY2jyw75O63xaE590a3xkuBzEoa8Rkx719OJVDzTyIxHQ1lfegpETkUuPhzYykqmnFzcMRnDkt2kTHPv5Wgx2hKEWVWY1wr8Zya/01usNq+dHfZ2iKGqdpCM+0uNXXAjXGqE4vU+venpxKr54zGgQG/mpdnSri6yhy6KnF08MAiPDQh/x6H/8AgYPNCH5BRUfL8gPxR2MqudH5O/r6FTEIBEnpSM+D7I/LXYaKelZTy9e9UDrVpmopzf9hmvRaPlc1ccKjwxJ9PRUMxvlBQGPG7o/+Rgaf/wMDB9pUTXUD635GVHPj8x8vO3ah5aQjvi8yP4yhJ+Lsi2HvZx28MhOrxxNFApXnR/2utAJGfX0QnmL9ZMw0LueXqxlD3cfrdX2bv8UDjzxY5z6YzAtXP9USqHdXqPp+dEgx3OsRanoCTknF/Fh5ftwh0dt7SMhSCTioQbS04sZHtzFNIqeXswYhLmRDK/7du2A3Y88Ad4uVCKKgPyMpudHI3va1VUrexgIYz4sFfF5KL6GyppHzCVNwo1G09OLBUKj6enFgoHSPaSmM3BwD+z8+qMRkp/x9Pyoz2s93ZWK+ET83KAx7PeMqqen1IknnjOqnt7Eck71f1LVGWw6AJ89+BiKyaJBL9rvKSXa8DCUnh+W16Nx7GypiI/UGkZVhvtKDUKWc4bW04sQ5JDKSiL09MgLInfxUpj56COqYqYRZjfplwnyw5HfvseehOEm3PBQmfkYSc9vFAc7YtCjYS1IRXwjzbjIqVLhGmIT06tMoaengkyI9BKhpydIb9kyqP7OAzDt2ism1fNTyZ60p2na27f7Mzj45L+gqcth5bVuXDs1jJ4fDnb8AwOa1otUxOfr6VEd5muKTjQvM5ueXhhsxpNevPX0LHYHTvHOg4qv3wFZ8+dCal7OWXp+YbKlm8O04dG7Yxs0/cuzKO6ARs6K4g6nyU/nen40tdfalk8q4hMR1XQ41SVzjez6RVDznfshZ2Gd8LVU6mnC2d4IenrjC0m7t3X1UP2tryVET8+S6kDNuvOh7K5bhbsXKZlQpDah5Ex6fn/5LZRwn6Yem2N8niX9TqYuFCGu+b9exKBJe9XJT+96fiRK2t+vaW1I5avrx0DDo6PKC7uaohPBy4yupxcBBEJthExWKBpa7vLFSPzKShshN7RI9fQE6V14ASq83CCCL9Hi/plE5Id6foWo50f2n0ee+QWMtKERvIo72Jn7Jf0ijJw/+mjMp/mrN6OwQZ3AOVx2CRPd6vmJqe5QuKIl5LhUxCfCSepoxCf09FBaioyTaZdNLQkR0W0NcPyXr6Pbkj709NTKRIa1ZJxMcW9JRl4tGhqprPTv2g/ke9sVoZ5eztLFUHrzdSDWDMeTXihzqOdndaRhwO5L0c/bD8eeX4uxdY8h+flDV+jyk9zbujZtRrmWFLHppy5pNabnR9PjYy+8DENHcJ1QB3FYaEMzMGRi4hOuasoG7NI0YLPo6SkBbsFQkeSGVn7XGijEkJFqKVY9vRSrFTX9UlUVXYiESdGERn6kZTfc0qyLjq+EW4CEDTaiqsvppE5+qfgDcIkY8epGzw9nef4ebUPJyjXiwwjrWltwhxpUNJ8haSkz6OmFw4VGu0R6ZV+5BYouXxHusjPHp6Kn17dtB5zMzhGjOjU9P+HUf+NV2PGDcOK1/8V4w0f0T35G1/M7HXjoTGPR4ItcxEdy85JPdUOkZyY9vYnt0OJwQlZtLZTedhMUX7lq4umz/p+qnl60en4UtHz6LdeItnTi9bcw3rBByI/1/M5qW7EekGpXN+jxgMwzXTPr6YUamJDXEqR3I5TglEothTYypqqnF9Lza3nhVRjcr2LjhpkS5Hfrl2D6jddBekUVbgwob7iolUOG82Laa0A9P+rz1Pe1TFIRnx/t+EDFXUdLcMa/i/X0KCDQ2JoejfRKcCNBLcVbT0+Q3/r10PzsSyjHjut3KsbuZ8jv5i+Dq6wC1wilmuCowTfpeUPq+ZEdXzf2fQ2TVMSnYbmjehXr6Y3FgQit6UUy0kuUnh5JuHd++CE0Pf0cuI+1qhq8h6a9JOTpnFGuukESVcNI0sWs5zd14Jn4VDBkPT20E5ZMT0+MejD+yKEfPY3O7ShiqbIuLMjvxquh/O414CiZoWpyo9IkpDjNen5TqwYmPiX8WE9PeEfIqKcnRj1bP4J9j/8IvD19SrUozondXpRwr3rwHkgrwIheaPis98R6frHXIBOfAnaspwcgs55e0It+rQ3bYdfDPwRf/6BCTY6dIju/oisvgZrvPgRpecWq1+vhAtbzi62WmPjC4MZ6eiAk82sevk94pah5ZNB0040S6nu+9wQM7NuDHhTa7NIJT5C9DdDw4OPg7VZXMaZpbwEaW8/6/reNJWllZj2/MH1Y6TAT3yTosJ7eGChlX70JEqGnNwnkUzg0irGGPdC/9zPYgxLuIydRxVvJMgBnuDaXE/JXLIea790/hffKdauZ9fxiqQkmvgmosZ7enwGx52SBBX1glZLYvW06Bvt/8BQM7N19OuC51taYY+RH094DT/wE3M2426tk6nJa1cVZXqpUNN2dM62eXww1JRXx2XJz0W4iSVliPb2omw/Z6Q0ebILGp56Gvs92aDa9DZdRGvn1fPoJNP7kGbTzOyr8VcNdS5sbqtP3sDfLe0KXen7Y9+x52Pc1TElimclLSAayydhrYz29yetD6Sh5ZAzsOwRN//ZzJJutEPR7lS7X7JzY7d2yBY4+83xEHh6aZUzDF+lNz4/6PPV9LZP+TdmniBbr6UUPYMgNLVI9vejfMLU7yM6vc+NGYaxcdtctuDM9G20RrVN7qM7u1pWeH46+TU18tqwMjKuLBqkaaZGynl70vTkWPb3o3zL1O8jDo2P9BnTatcCMNTfiDvUc85GfXvT8kPisGelTr/QoniDViM+Oa3zulGbMfuJDTLKeXhSt5PSlserpRf+m+NwREjag9bwZt1+P5DfXhOSnAz0/nOum2LUVkZCK+KwZLmyjqDYbn3Yf9ikhaSkz6+mFBSfMiano6YV5pCaHifw63/9AvIuk60058pNcz4/6vDXdpUl7CL1EKuKzpONwF0FIZAqRntn19Ow5ke+iTVVPL5H1Gcmzo9Xzi+SZeruGpv5dsur5peCubn7k7TEe2Eu1q2vLzsLtncQRH+vpIbyonEwiovkrLoyo/YQ2MqaqpxfRyxJ4UWjaG6meXwKzkrRHS6vnh4MdMejREBmpiM9eWJAw2yrW0xszGSBpqWTp6WnYrid9VbR6fpM+ROcHZdTzI3tKWt/XMslFfFmZCZnqsp4ekh466Mugp6dl457sXRP1/Ca7xujHpNPzw513R0W5prDLRXzFRXEf8bGeHv6WSKanp2kLn+RlIT2/wz/9z0nOmuOQTHp+KbjGZ83M0BR4qYgvtQSlgixxNDTFIXTWvAVQ9dA9UIBO6aoJFUaGW07A/r95Evp2NUjjjaCab6ULcP1ERj09pSxrcY5GPZ6uk1q8Stp3SKPnh/00jfq+hkkq4kujER8Oe+OVWE9Pbj29eNUzPyd2BGTQ86M+n1pcGHshYrgzfiwTw8vPugVHJ/aC/LjERWA9PdLTWwCy6+md1Qb4gOYICEmrJOn5kSthKvb5RJuxTQRVLuLD3DnKyyAldWpW3KynN0Z61SgiKr+e3sQmyf8nA4Fk6flR5Duy5tA6SUd8NOSlxfhYE+vp/Zn0cpbU60RPL9ba5vviiUAy9PzIVS2tbEY8ixHRs6QjPmHLZ41hgwMXSLMXLIaaR+6HrPq5qPaQqghAyBuh8afPQP/uXajd5lO8Xi8naXpLIz0iPavToZht2fT0FDPLJzVBQGs9PzHVLSnSpGzjXyId8TmQ/S1ROiyznh5WKe3e1tVD9be+BrlLF6iTnqR6euMbJ39PDgJa6vlRX6c+r3WKfU6ZoJw6KjHocxRrfKynN2anRyYrVd9E0lu+GI2VlddIQ25osurpJahp8WOjQEArPT/q69TntU7SER/t8NiyssDbhkFjAsryVKynN+aRkTG3Fiq/fifkX7RM1QBcL3p6WncEft/ZCJChd9emzdjIUDEJbVxzFs9TXH+nH9yiKy4GisNy7IWXYejIYfwefgkpBZe0qK+LXd2zX5/QI9IRHy12pk4rAffRYzDqdoctPOvpYXtEuW5yQyu/aw0UYshEtaQ3PT218vD5xCMghA02bjrzInXyS4Xiqy8Rg5bja38FQ4cbwzoCUF8Xa/pRLm2dycwUvkhHfFQWZ3UlDO5Ez4kwxBeSljKznh6NdkO+t0WXr1BtAtHq6Vnsadh4/RiqUXnUrfpivkD3CAhJq9PkR9p52Yto5Bd+A5L8wkuuXS3CfLa+8iYGfjo0KfnRBqRjxvSk4CMl8dGcnzr2ZClEembX0yNpKVJZKb5y1WQwfe5YaAe79eU3oOP99RgCMvxImm4k0stdtgwjqO0HTweGAuBkegQSoedndbnANWd2UrCVbleXUEibPm1ScxTW00NSOq2nV3rbjVCCUwq1FNrIiFRPz2JLhZxFi6DygbvBVaX9orNaefR43mJPxRGS8oaTHsoVbz0/CwZ2d86qSUrRpSQ+Z1XFmFoDDqtDSXT4+fVA09ui1ReFDof9JBu1/t0HoPnZl6Abww0GfSNhr9XLidCaXqL09FKsdnRzmw81330QsuajLSROWThNHYH0qhpwlVWgK6aUE6yoChgvPT/S4LOhIkvaNG3FCUKFlZL4iORSS0rActoAl/X0cKSXYD09C45IMmfPhdl/+yiuHc7C6a7+O2mokSf7s+T6L2Kkt5vAOQNNtWIxzk92ASa8Px56fhac5jrKysIuaU14Zdz/lZL4qJQZdeeAPTtbbJ9nzauH8nvvgMJV56sCMBoIwuDhZjj01L9C3/btONLzqN4j+wWJ1tMj0kuvnAW1P34CMmZWKi5cy46VjPmz4iL+9BuvhvK714CjZIaqyZGMZZiYp6nq+dkycLRXVjrxsZr9Ly3xESgUa5P19BKrpxcivfn//iNIryiNqyyYZq1YBy+iHcxpX74Cqh68B9IKSjRXI0kERFPR80uffQ6kz69LRLYieqa085mM+jrIW7ESii5cBjlL69ULgwaW7tZ22P0XP4Sho4cM43ubWTtfeGSQcXIkyX3yFOx97B9gYO/uSU0Ixj+D1vQyZs0VIz1nKa61jFtTHX8df48PArRcUXTlJWIW0/h//w2FUNvi8+AkPmW8nt/CZ38Mqfk5iu2IjJwLVp4P6fXnwPBw8tbdpR3x0VZ3+b23QfbCOtWpAU1vh5pboeGbj8MwkZ6CtXgS20jUr06knh7t3mbjZtHcf/xrXHhHWyomvajrJ5YbrGh0XoDG5rO+/21Iy58WyyOkuydaPT9yU7Pl5WoeUnI8cNISH3XEFEcagIKhJBWE3GMGG4/C3kefECM9+gUyQgqprCRKTy9j7iyY9di3IaOGdhvlbQZGqMvPlQENFWxoxpGPoRAIf0OR38E9sO+xJ2G4qQVnXMHPFXv8P+T+Rn+0s5uslLw3R1BiP4IXRIDCJTJZGdh3CA7+/Y9hAI1tjTTSC0lLWYj8FRIR/1DTMdj/g6fGprdemj6Exyz0KFtWBmTMnckbGSFAtPzEH3Ubrl/n4zKOkcgvUj0/6tPUt5OZpCa+YDCIbi+Td+KQNwLr6TVB41NPQ99nO6LawaZfWzZZSWLXI/LLRPLDtdtZ338YR37G2fDo3bENmv7lWbSjPShmZBNRpj5NfTuZSWrio+FwAAEKTiA/4Wz/2R44+rPnoW8Hdni/N5kYxufd2BFYTy8+UOrmKaGR38rzYOZffgschdOSOv2LF25Ken7Up8WARmEmF698KD1H2l3dUKaDOCQetdGvw5hTNJFe747d0PLCK9DzySdRjXJCz5Ttk+z0WE9PtlrRKD9EfriRV7h6BY6O/HDkmV/ASNtxoW6iUQ4S8ppwen40iKHBTLKT9MQXGvGRwbsgvW0NcPyXr6Mb2keGID0ycWA9vWR3g8S+P4iERmuxYRVNcMPDimu5xVdfim3aD8eeXwvu4yjLhuo4ek6T6fkR5QWSvL5HmEpPfDQspj//iAf6t++C46gw0rV5MzaQ5NkAxasxhnxvWU8vXojK+ZzeTxsgq64OjfHnhic/zDr9CE677gox8iMtu+GWZvyubyuF8Xp+NM11zpuT9PU9aiXSEx9l0ucewYXS/XDylf+FLtQFozUEvSfyR06knp7e8TFS/rs3bkFSc8CM229A8pujTH7k4XHjVcIc5MRr/4v2qUf0T37uIdFvrblZUFKYB1aKo5vkJPXmRggb37AbOj7cAt2bUWXFEKTnhKzaOuwIN8egp7dOVU8vhBt/yoGAf3gQOt77AI6vfR1NjnCnUyWkAhk5T7/lGph+03XoQ12FRKl/Saugxw3e/j6gvixD0gXxpeCvoDU7HdValG3aZABULQ+J1tNTez+fTw4CATeS3/vrcFPuVRjcj7EoIiG/W7+E4gZIfhX6Jz9rVia4ZlWDo1z7iGqT1bg+iA81+Ump1TmzarIy6OZYaE0vUXp6ugHCpBkV5Ld+vdCIHGrE9TuVRX4x8iPyu/nLutfzc1ZWgAN1NmVJuiA+AstRXgaOinLd+pQmWk9PlgbF+VBGgCTcOz/8EJqefg7cx1pFXAqlO0LTXj3r+ZGxPCktO6urlYqq6TndEF9qcSESXxlY012aAhSPlyVaTy8eeeRnaIeAUDFGy4RDP3oaPG0Y00TFmFeQn471/EiQwDWzBqgPy5J0Q3wEmGv2LMhcGIFElSzoUj7IIwODfVPc20iioVEncB9vQ//jn0LPVmMYaMtUHbLkRRj4bv0I9j3+I/D29KlmS896flnLlkJ63VzVMmp5gb6Ib85MyFykL+IL6ekVoFtSJCmkp9fXsNMYrniRFNqk1wS9Huht2A67Hv4h+PoHVVEI6fnVfPchSMtLTqwK1UxOckEahpC0F8kz2qMs6or4qOJpnc+VpMhMk9Sp4qFE6ukpvphP6gYBinfcv7cBGh58HLzdvRFNe/Wk55cxrxYyaucKNRqZKkVXxEfTRkdVJWQuXSwThpPmJdF6epO+lA/qEAF02seRX//ez2DPI0/ACCpojyr5supMzy+jfh6kkQkL9l2Zkr6ID5FLLSrAdb75QMNnWVOI9HKW1GMUKWXbw1j19GQtO+crFgTGyI+mvQee+Am4UU1c0dQFSUQPen6phQW4tncO0KdsSXfERzukDrQJylq6RDYsRX7Gk571dHjMcBklh/TBg7Hp6YV7Jh/XLwI08uv59BNo/MkzMISq4opGzkR+kuv5ZSxeiH0VQ2pin5Ut6Y74CEDaFs9cugijsGXIgyc2RNbTk6c69JoTsdu7ZQscfeZ5dQ+P0MhPQj0/6pvZ5y/HgOEosCph0iXxkQcEub6k186RAlL6RcvCaGjV3/wa5C5frDq9FerRew5A83MvjfkfGyD2rxQVYZBMkJ1f58aNcOy/X4aBPZOrGJ8pKpHfaT2/6m9/AxzTyqQIWp517mKxCWlRmfWcKYfGX3RJfIRRKm6P51x0PqSgO1syk/DIqJ0HlQ/cLWTEKXyeUhK7eLv2QcuLr0LXhxsNIa+lVF4+FxsC5OHRsX4DtLz0K1QmOiD0/MI+aZyeX8V9XwXnDAoglbzppTU9HXIvWYEzs6KwWU72Cd0Sny0Tg+UsmA8ujBaWrCR8b1FlpeKer0AhhgxUixolJPMb9gmVjs51GwyhNJMs7M3w3pCwAWlQkiwbbYQpJfoRJj2/sjtuAVd5ZdJUXTLQ1jZ97mywYjQ5WZNuiQ/Q/49+UfJXjwVo1hpgoaeHpFd2x60ReWTQSK8PR3qtL7+JKh3rWVpK6wrT6fuI/DrfR0krbDeqIz8so/DwQD2/0ltvSIqqi8WJoTO/eBnGzc2TGnH9Eh/CSlv6WcuWoPNzpaYgWxysp6cp4CZ/mZ70/NLJYHl+ndSjPWpOuiY+GvXZUc214NqrxC+dFv2D9fS0QJnfMRGB0LRXZj0/Gm0WXncV2FB7T/aUvBXQOCFDC6n5l18KA1u3Q7AXXX4SnFILi3FqexmUXH1JRG8KoGx+36efga+7C6XmayK6R4uLXBFoo9E1/oEBLbKTlHekz6xWfa8LFYGyF8xTvU6rC7w9XdD90TZw1VSAlSJwKaSQnl8KXkfLKwF3YuvSkpMD2ShIQIMD2VNKb9/A5BG7Zc/5hPzZ7TZwopdECm7vc2IEGAFtESBlLffICPjQKF8PSd9T3XEIE+B+FTnvcZfzV0aAEYgjAsFgQDekR8U2DPFRYbweH8rZGWIAS8XhxAjoAgHqc263Rxd5DWXSUMRHIz4f2jox+YWqlz8ZgcQiQH2NZlsBJUWZxGYhpqcbivgIAY/HC0Ee9cXUGPgmRiBaBKivebz6C3puOOIL4i8P/QLxqC/aJszXMwLRIRAa7VGf01syHPFRBXjxF4imvTzw01tz5PzqCYEAhsekvqbHZEjiE79EXhr16e+XSI+NiPNsPgSI9DzohqnXmZXuDZjDNTka8bVv2AL9H30Cvs6ucJfxcRMjQMbJ1Q/fr4hAy0uvQN/OXYrXmO0keUtlfWEZpC9eoNuiG5b4xC9RhgsGjzRD3yfbYBR/nTgxAuMRII8MNeIj0mt/593xt5n6ewoqwGSjf3zWZatAz4Zjhpzqhlqms7oKdcEuBif+snNiBBiBqSNAgiB56CKqtTDI1HP++ScYdsRHxRTKyMvPhZGjzegr2wO+ru7Pl57/YwQYgYgREOK/F56H09xzpYyjEXFB8EJDj/gICHteDuSuWgGZSxbqwnk6msrjaxkBrRAgpXMSGM1deREGOZIo1k2MABie+AgXF6rB5uGahGvOTFWV5Bhx5NsYAcMiQMrirlk1kLviQnDWVBminIae6o6vocwli8Dbfgr/OsDb1j7+FH9nBBgBBQTsGN8m/8rVYoqrcJmuTplixEc1Qvr/mUsXiwBFUoWl1FVz4cyaDQHqKxTUi/qOzDE0oq0X0xAfAePE4MYFV10O2bQ4qyLiGC2QfD0jYDQEqI9QXym46grRd4xUPlMRH1Wcc2YV5K1eCakU6JhFS43Ulrks8USAgnlhH6G+4pxZGc8nS/Es0xFfis2OAYqWQuk37gErBivixAgwAmcjkIreGaUP3if6CvUZoyXTER9VoAgYhJHep993t9Hqk8vDCMQFgcIbroVM9GzRQ/yMWApsSuIjoGzZWZBz/nIouOaLseDG9zAChkWA+kTepReDPTfHsGU0LfHR+l7qtGIoXnOLcGszbA1zwRiBKBAgF0/qE2INHNf5jJqMW7IIaox2rRxlpTDt7jVooDmTNzsiwIwvMSgCOBBwzMC+cNca0SeMbvVgauKjJkz+vM7KCpjxzfvAXliAC4Cmh8SgPZuLFRYBbPP2ggIoe+QhcGIsZeoTRk/cy7GGx/wQF0Dp/fdCWkkxu7UZvdVz+c4gQO5o1OZLH7hXGClTXzBDMj61R1iLFtQZIwfsUYzX0b72VfC0noBRA8fpTZ9ZDWVrblZEp2XtazDU2KR4DZ/ULwI0nU0rnT62zo1tn/qAWRIT37iaJpecvMtWQtDthlOvvQke8unVYSCVcUUK+9VBv/K33hD2PJ3oeH8DE58iQjo+iSM92twrwjZAbd5I7miR1ApPdSegZE13Qd4Vl0LBl66ENPLu4DW/CQjxv7pHgKa32LapjedjW6c2b7bEI75Japzslwquu0oEUul6+4/gPXESRg068puk+HzIwAjQml7q9GmQjz7rRHzWdHN6L/GIL0wjt+fmQuF1V2MDWS0aCo/8wgDFh/WDwBnSWy3aNrVxsyYmPoWat+cR+V0jfh152qsAFJ+SH4HT01sa6VGbprZt5sRTXZXaF+T35atRxsoCnb95B7wn2w2926sCB5/WIQK0e5taXCTcM2kJx8wjvVD1MfGFkFD4pIZSdON1qOaSAadeeQM8x1t5zU8BLz4lDwLCTg9NVgqv/5LYtDOy/200qDPxRYgWLQLnX3EZjvxs0PbiWkObukQICV8mOwK0podmS+R7K0xWTLh7G66KeI0vHDKTHBemLqtXwbSv3Qn2/Hz27Z0EIz4kCQLoe2tHTT1qq3nYZs1osqJUEzziU0JnknMhI2d7Tha0/NN/wAhOezkxArIh4JpZI/zPMxYtMJVHRqT1wCO+SJEadx259mSduwSq//FvWdJqHC78VQ4ESFqq8od/BZmLMZa0idzQokGfR3zRoDXuWnLmdlZXoorzXcLdp/O3vx93lr8yAslBgEREaU2P5NbMoLISK8pMfLEih/dRw3KUzxAaZmmoZdbxxq/B29llWP/eKUDFtyYSAVzPo/gxFEqBVMXJB9foenpThZOJb4oICoULdAGiX9q0shnQ+sxzaOvXxrZ+U8SVb48MAWGjh363FDwrC+PIUEgFjh6ojh0TnzpG6leg2YA9Pw9/bZeBxWaB7nfXQd9HWyEwOKh+L1/BCMSIANmVUtxbCgFJkQONGhgoRngUb2PiU4QnupPU8LJpqlFUBDYUOuj9cDP4TnWwsXN0MPLVKgiQUbK9qBByLjp/LNg3xr01YghIFRimdJqJb0rwnX0zNUDX3NlQiCRI639d77wLw4cOo8Cp7+yL+QgjECUC9OPqmjMTDZJXCcVkZ2V5lE/gywkBJr4EtQNqkKn4q2zPy4OeDRthcEcDeHH0x4kRiBUBWk7JXLJIeGHQp9nEQ2PFbbL7mPgmQyVOx6hh5l6yAhwVZdCDGx+9G7eAu+kojHq9cXoDP8YMCKSgLZ4T21D2ecshd9UKnFHMMkOxE1pGJr6Ewjv2cGdNlViTcZSXQfcf34OhfQfA19WtwZv5FXpHgFwj08+ZLQzls5afizMI4wb51rKumPg0QtuWmYG/1hfh6G8G9Ly3Hvq2fALuo8d47U8j/PX2GlrLIw3I7Au+IHxtyVieDZLjV4tMfPHDUvVJ1HBds2ch+VWIhem2l/4H3IePgL+nl3d+VdEzxwW0Y0sWAel150D+lZej29kCsGVlmqPwGpaSiU9DsEOvsqSRr+9icNZUQuev34buP60Db9spCAwNhS7hTxMiYHE6IW16idi8KLgWBUNxY4xTYhBg4ksMrhE9lRp2yR23Q86qi0U4y57310Ogf4C9PiJCzyAXobtZit2GO7QusXlRcuft4ED3xxSb1SAFlLMYTHxJrhdq4LRjV/G9h1El9xpofvInYuc36PEAhnlLcu749QlFgHxsURw0C01Tim+/GTLm12E405SEvpIfPoYAE58sLQE7gau6Cub+7J+hd8NmaH/ldRg+eAiCHjZ9kaWK4pkPWu5wzpoFxRjQO3flhZBiwREek148IVZ8FhOfIjwanxTTHjtkX3QeZJ67CAa27oCOt34Hg7v3QtDt1jgz/LpEIEAbXLRDS2t4pIxMu7e8W5sIpJWfycSnjE9SzpJ4JP1lX7Ac0ufXwtCuvdD1+3dhAL0/eAMkKVUy5ZeSfiMZHuevvgQFBZYIWXizBvOeMphxeAATXxxATNQjaDSQin/W85ahf+YsGNp/EGgDpH/rdlZ+SRTocX4uKaik184RggIZC+aLMI821M7jAPVxBjrKxzHxRQlYMi4n1zf6s2EQaNfMKlwTuggNoD+GgW07wdvRmYws8TtVEEibMR2yli5Be81FQqyC/LbJiJ0JTwU4jU4z8WkEdDxeIwiwsgJHDcXgnFmNo4gLYHDPPhhs2AVDu/fF4xX8jCki4JpVI4zTMxfOB4eoq0KwpKVN8al8e7wRYOKLN6IaPM/idIgFcpK9cqEfJ60ZDe3dD97WE9D38afg7+5hTxAN6kG84rRJSubCeshcVI9eOeXgqKpEZZ4C3rTQqg5ieA8TXwygyXIL7QaSP2caBo1Or50LPpz2ZtTPh+HGw6gB2Agj6AssDKKDQVmybIh8CLey7GwcdVeNER3aYZIrIunkiahmSIac5EaAiU/u+oksd9jRaP2I/shUwtvegT7ATSiC0AzuxiZBgB4cDfrRK4RTbAhQbAsyNqZlBkd1Ba61ViPRzcb1uzI8VhjbQ/mupCHAxJc06BP3YuqI9Ecy+CMtreDG0d/wwcMw0nwMfYLbhSAqR+GKDH97AcpC4WiafGgpkp4T1+1ohz2tdBq6mtkjewhfJR0CTHzSVUl8M0TxVekvZ8UFOBI8BcMHGsVoMDUnG/yBADoLoK/o6b/4vlmfTxtFN0H6C9JncBSyli8Fx7xaFJSowh+TIl6302e1npVrJr6zIDHmAbEeWDodRyrThSo0kd3IiBdsVgtaWOAffiIFniZBilBognUqdIUOER15RRPRBXE9lP78gbFPF/rRuozZJExdKiY+k1Y/dfgAjvjojxKN/IgArSiaYEGfUfpOkbxo8yQwMgLBEY+QzB89fb3eYKOpPUm4W3FHnAzDyVc2rbIM/P6AGPkS2QWQ7AgXTsZHIKW3b4Br2vj1HHUJacDnbj4Ow+gt4j5yFEaOHReB0v39/UiAPgj6/DDqxz+fb+xTEkIcIzi7mJKmWG1gQcmnlFQ7inlmQSqSuBOFIBwYCIrW7JxVFRyLNuqWYYwbmPiMUY+alIJIztvZJXaJadOENko8LUiIaEbjw+OjOGLCeSKOmvCTRk/4Hf+hOeTYSErMJ+l/XD+jHNN5pYSjzjMTblIuScH/iZHpD/8nsxL6PqZsgudwuk6bEaGdVnthoVjfJKJLxeO8GaEEtrnOMfGZq74TV1okMw9unggl6YFBsYPs6+lXZZ8JAAABvUlEQVSBIKpK+7p6UFxhWIwOA4NDOHX2oNyWByX3exTzY8vNPeP1YMvKADv+b0U/V2uGC6xZ2WAvLAA7yrLbcdMhtaQI0vBTkKLiU/kkI4DNhKe63AwYAUbAbAjgXIETI8AIMALmQoCJz1z1zaVlBBgBRICJj5sBI8AImA4BJj7TVTkXmBFgBJj4uA0wAoyA6RBg4jNdlXOBGQFGgImP2wAjwAiYDgEmPtNVOReYEWAEmPi4DTACjIDpEGDiM12Vc4EZAUaAiY/bACPACJgOASY+01U5F5gRYASY+LgNMAKMgOkQYOIzXZVzgRkBRoCJj9sAI8AImA4BJj7TVTkXmBFgBJj4uA0wAoyA6RBg4jNdlXOBGQFGgImP2wAjwAiYDgEmPtNVOReYEWAEmPi4DTACjIDpEGDiM12Vc4EZAUaAiY/bACPACJgOASY+01U5F5gRYASY+LgNMAKMgOkQYOIzXZVzgRkBRoCJj9sAI8AImA4BJj7TVTkXmBFgBJj4uA0wAoyA6RBg4jNdlXOBGQFGgImP2wAjwAiYDgEmPtNVOReYEWAEmPi4DTACjIDpEGDiM12Vc4EZAUbg/wM44Q9hrlmbNgAAAABJRU5ErkJggg==;" vertex="1" parent="1">
          <mxGeometry x="371" y="90" width="249" height="244.3" as="geometry" />
        </mxCell>
        <mxCell id="o5mqcoUGSECQ9BWpFlMJ-4" value="" style="shape=image;verticalLabelPosition=bottom;labelBackgroundColor=default;verticalAlign=top;aspect=fixed;imageAspect=0;image=data:image/png,iVBORw0KGgoAAAANSUhEUgAAAWYAAAEkCAYAAAActptxAAAKrWlDQ1BJQ0MgUHJvZmlsZQAASImVlwdQU1kXgO976SGhJYQiJfQmSCeAlBBaKNKrjZAECCWEQACxI4srsBZURMACVkTBtQCyFkQUC4tg7xtkUVDWxYKoqPwPGMLu/vP///xn5sz53nnnnnvunXfvnAcAWZEjEqXBigCkC7PFYb6e9JjYODpuEBAADlCBC3DicLNEzJCQQIDIjP27fLwHoEl722Iy17+//6+ixONncQGAQhBO4GVx0xE+hegrrkicDQBqL+LXz80WTXIHwlQxUiDCDyY5aZqHJzlhitFgKiYijIUwFQA8icMRJwFAoiN+eg43CclD8kDYSsgTCBEWIeyWnp7BQ/g4wiZIDOIjTeZnJPwlT9LfcibIcnI4STKeXsuU4L0EWaI0zrL/czv+t6SnSWbmMEKUlCz2C0OsMrJnD1IzAmQsTFgQPMMC3lT8FCdL/CJnmJvFipthHscrQDY2bUHgDCcKfNiyPNnsiBnmZ3mHz7A4I0w2V6KYxZxhjnh2XklqpMyfzGfL8ucnR0TPcI4gasEMZ6WGB8zGsGR+sSRMVj9f6Os5O6+PbO3pWX9Zr4AtG5udHOEnWztntn6+kDmbMytGVhuP7+U9GxMpixdle8rmEqWFyOL5ab4yf1ZOuGxsNvJBzo4Nke1hCsc/ZIYBC2SANETFgA4CkScvALL5edmTC2FliJaJBUnJ2XQmcsL4dLaQazmXbmNlYwfA5Hmd/hze06bOIUS7Putb5wiAa+HExMTZWV/AAQBOxgJAvDPrM/4MgII+AFd3cyXinGnf1FnCACJQQG4CdaAN9IEJsAA2wAG5FzyAN/AHwSACxIIlgAuSQTpSeS5YAdaCIlACNoPtoBLsAfvAYXAMnADN4Cy4CK6AG6AH3AWPgRQMgNdgBHwE4xAE4SAyRIHUIR3IEDKHbCAG5AZ5Q4FQGBQLxUNJkBCSQCugdVAJVAZVQjVQHfQzdAa6CF2DeqGHUB80BL2DvsAomARTYS3YCJ4HM2AmHABHwIvhJDgTzocL4Y1wBVwLH4Wb4IvwDfguLIVfw6MogJJD0VC6KAsUA8VCBaPiUIkoMWoVqhhVjqpFNaBaUZ2o2ygpahj1GY1FU9B0tAXaBe2HjkRz0ZnoVehSdCX6MLoJ3YG+je5Dj6C/Y8gYTYw5xhnDxsRgkjC5mCJMOeYg5jTmMuYuZgDzEYvF0rDGWEesHzYWm4Jdji3F7sI2Ytuwvdh+7CgOh1PHmeNcccE4Di4bV4TbiTuKu4C7hRvAfcLL4XXwNngffBxeiC/Al+OP4M/jb+Ff4scJigRDgjMhmMAjLCNsIuwntBJuEgYI40QlojHRlRhBTCGuJVYQG4iXiU+I7+Xk5PTknORC5QRya+Qq5I7LXZXrk/tMUiaZkVikRSQJaSPpEKmN9JD0nkwmG5E9yHHkbPJGch35EvkZ+ZM8Rd5Sni3Pk18tXyXfJH9L/o0CQcFQgamwRCFfoVzhpMJNhWFFgqKRIkuRo7hKsUrxjOJ9xVElipK1UrBSulKp0hGla0qDyjhlI2VvZZ5yofI+5UvK/RQURZ/ConAp6yj7KZcpA1Qs1ZjKpqZQS6jHqN3UERVlFTuVKJU8lSqVcypSGopmRGPT0mibaCdo92hfVLVUmap81Q2qDaq3VMfU5qh5qPHVitUa1e6qfVGnq3urp6pvUW9Wf6qB1jDTCNXI1ditcVljeA51jssc7pziOSfmPNKENc00wzSXa+7T7NIc1dLW8tUSae3UuqQ1rE3T9tBO0d6mfV57SIei46Yj0Nmmc0HnFV2FzqSn0SvoHfQRXU1dP12Jbo1ut+64nrFepF6BXqPeU32iPkM/UX+bfrv+iIGOQZDBCoN6g0eGBEOGYbLhDsNOwzEjY6Noo/VGzUaDxmrGbON843rjJyZkE3eTTJNakzumWFOGaarpLtMeM9jM3izZrMrspjls7mAuMN9l3jsXM9dprnBu7dz7FiQLpkWORb1FnyXNMtCywLLZ8s08g3lx87bM65z33creKs1qv9Vja2Vrf+sC61brdzZmNlybKps7tmRbH9vVti22b+3M7fh2u+0e2FPsg+zX27fbf3NwdBA7NDgMORo4xjtWO95nUBkhjFLGVSeMk6fTaqezTp+dHZyznU84/+li4ZLqcsRlcL7xfP78/fP7XfVcOa41rlI3ulu82143qbuuO8e91v25h74Hz+Ogx0umKTOFeZT5xtPKU+x52nOM5cxayWrzQnn5ehV7dXsre0d6V3o/89HzSfKp9xnxtfdd7tvmh/EL8Nvid5+txeay69gj/o7+K/07AkgB4QGVAc8DzQLFga1BcJB/0NagJwsMFwgXNAeDYHbw1uCnIcYhmSG/hGJDQ0KrQl+EWYetCOsMp4QvDT8S/jHCM2JTxONIk0hJZHuUQtSiqLqosWiv6LJoacy8mJUxN2I1YgWxLXG4uKi4g3GjC70Xbl84sMh+UdGie4uNF+ctvrZEY0naknNLFZZylp6Mx8RHxx+J/8oJ5tRyRhPYCdUJI1wWdwf3Nc+Dt403xHfll/FfJromliUOJrkmbU0aSnZPLk8eFrAElYK3KX4pe1LGUoNTD6VOpEWnNabj0+PTzwiVhanCjgztjLyMXpG5qEgkzXTO3J45Ig4QH8yCshZntWRTkcaoS2Ii+UHSl+OWU5XzKTcq92SeUp4wr2uZ2bINy17m++QfWI5ezl3evkJ3xdoVfSuZK2tWQasSVrWv1l9duHpgje+aw2uJa1PX/lpgVVBW8GFd9LrWQq3CNYX9P/j+UF8kXyQuur/eZf2eH9E/Cn7s3mC7YeeG78W84uslViXlJV9LuaXXf7L+qeKniY2JG7s3OWzavRm7Wbj53hb3LYfLlMryy/q3Bm1t2kbfVrztw/al26+V25Xv2UHcIdkhrQisaNlpsHPzzq+VyZV3qzyrGqs1qzdUj+3i7bq122N3wx6tPSV7vuwV7H1Q41vTVGtUW74Puy9n34v9Ufs7DzAO1B3UOFhy8Nsh4SHp4bDDHXWOdXVHNI9sqofrJfVDRxcd7TnmdaylwaKhppHWWHIcHJccf/Vz/M/3TgScaD/JONlwyvBU9WnK6eImqGlZ00hzcrO0Jbal94z/mfZWl9bTv1j+cuis7tmqcyrnNp0nni88P3Eh/8Jom6ht+GLSxf72pe2PL8VcutMR2tF9OeDy1Ss+Vy51MjsvXHW9evaa87Uz1xnXm2843Gjqsu86/av9r6e7HbqbbjrebOlx6mntnd97/pb7rYu3vW5fucO+c+Pugru99yLvPbi/6L70Ae/B4MO0h28f5Twaf7zmCeZJ8VPFp+XPNJ/V/mb6W6PUQXquz6uv63n488f93P7Xv2f9/nWg8AX5RflLnZd1gzaDZ4d8hnpeLXw18Fr0eny46A+lP6rfmLw59afHn10jMSMDb8VvJ96Vvld/f+iD3Yf20ZDRZx/TP46PFX9S/3T4M+Nz55foLy/Hc7/ivlZ8M/3W+j3g+5OJ9IkJEUfMmWoFUIjCiYkAvDsEABnpHSg9SP+wcLqfnhJo+h9gisB/4umee0ocAGhAzGRbxGoD4DiiRmsAkEeeJ1uiCA8A29rKdKb3nerTJwWL/LHs9Zqkh1tDa8A/ZLqH/0vd/7RgMqsd+Kf9F9tVBvMgzcPUAAAAlmVYSWZNTQAqAAAACAAFARIAAwAAAAEAAQAAARoABQAAAAEAAABKARsABQAAAAEAAABSASgAAwAAAAEAAgAAh2kABAAAAAEAAABaAAAAAAAAAJAAAAABAAAAkAAAAAEAA5KGAAcAAAASAAAAhKACAAQAAAABAAABZqADAAQAAAABAAABJAAAAABBU0NJSQAAAFNjcmVlbnNob3TKDvnDAAAACXBIWXMAABYlAAAWJQFJUiTwAAAC22lUWHRYTUw6Y29tLmFkb2JlLnhtcAAAAAAAPHg6eG1wbWV0YSB4bWxuczp4PSJhZG9iZTpuczptZXRhLyIgeDp4bXB0az0iWE1QIENvcmUgNi4wLjAiPgogICA8cmRmOlJERiB4bWxuczpyZGY9Imh0dHA6Ly93d3cudzMub3JnLzE5OTkvMDIvMjItcmRmLXN5bnRheC1ucyMiPgogICAgICA8cmRmOkRlc2NyaXB0aW9uIHJkZjphYm91dD0iIgogICAgICAgICAgICB4bWxuczpleGlmPSJodHRwOi8vbnMuYWRvYmUuY29tL2V4aWYvMS4wLyIKICAgICAgICAgICAgeG1sbnM6dGlmZj0iaHR0cDovL25zLmFkb2JlLmNvbS90aWZmLzEuMC8iPgogICAgICAgICA8ZXhpZjpVc2VyQ29tbWVudD5TY3JlZW5zaG90PC9leGlmOlVzZXJDb21tZW50PgogICAgICAgICA8ZXhpZjpQaXhlbFhEaW1lbnNpb24+MzU4PC9leGlmOlBpeGVsWERpbWVuc2lvbj4KICAgICAgICAgPGV4aWY6UGl4ZWxZRGltZW5zaW9uPjI5MjwvZXhpZjpQaXhlbFlEaW1lbnNpb24+CiAgICAgICAgIDx0aWZmOlJlc29sdXRpb25Vbml0PjI8L3RpZmY6UmVzb2x1dGlvblVuaXQ+CiAgICAgICAgIDx0aWZmOlhSZXNvbHV0aW9uPjE0NC8xPC90aWZmOlhSZXNvbHV0aW9uPgogICAgICAgICA8dGlmZjpZUmVzb2x1dGlvbj4xNDQvMTwvdGlmZjpZUmVzb2x1dGlvbj4KICAgICAgICAgPHRpZmY6T3JpZW50YXRpb24+MTwvdGlmZjpPcmllbnRhdGlvbj4KICAgICAgPC9yZGY6RGVzY3JpcHRpb24+CiAgIDwvcmRmOlJERj4KPC94OnhtcG1ldGE+Ci9lMcwAAEAASURBVHgB7b0HmFzHlR56pnNPzgGDQR7kQIAIjGAEwZyUqV1JK63XWu3aluznfVrZu/Z635O93u95w5M2yAorSmIWMwkSIBJJEEQiQOQ0ACbn2NO5p8f/qcGAA2DC7XB7bvc955v+uqdv3aq6f9U9XffUOf/J6uv3DJOIICAICAKCgGEQsBimJ9IRQUAQEAQEAYWAKGaZCIKAICAIGAwBUcwGGxDpjiAgCAgCophlDggCgoAgYDAERDEbbECkO4KAICAIiGKWOSAICAKCgMEQEMVssAGR7ggCgoAgIIpZ5oAgIAgIAgZDQBSzwQZEuiMICAKCgChmmQOCgCAgCBgMAVHMBhsQ6Y4gIAgIAqKYZQ4IAoKAIGAwBGwG6490RxDQhsDwMAXb2ynU1kHhdrwGPBTp6qZI/wANDXrVK9zbS5GBQVVfNBikCP6fTGxFRWRxOsnqwis3h7LsdrLmZJO9pBjvOWQrKiTX7Bqy5uWSo7KcnBUVRFlZk1UpxwSBuBAQxRwXbHJSKhAYDocpBGUbuFRPgcZminR2Qxl3UKChkcL4fnhoiCgapWG8CIpavUdBlsif8cIXOD5CnqiFQjHS30+sZsOsbNWL3/gzHizxnmXBu9Uy8h0+Z1mtZC8tIUdZKblm1ZC9ooxcNdXkmjObHPieFbuIIBAPAllC+xkPbHJOshGIBgLkv1hPwZZWKOIG8l+4RKHWNqx4B2g4FKYolDQr4uFIRP2vlHKyOxFHfaycs2w2pYSzbFayQBlnOexky88nR1UlFPZMcs+dTe7a+eTE/xaXK45W5BSzISCK2WwjboTrxWp2yOejwaMnKNjUQoPHT8Ik0UZDnkGKBkPESnrIH4ACDo2sio3Q5xj7oBS2wwFFzKYRF1my3WSDCcRVU0NOrKpzViwlZ3U1zCRFIyvxGOuX4pmNgCjmzB5fw1wdK2L/+QvkO312ZGXc1Ezhvn6Ken0UhgkhCkXMJohMFjaFWLKzYa+Gki4sJCuUtWv2LLWizl68kNwL5uG77EyGQK5NIwKimDUCJcViQ4BNDiHYg/11F5VZQpkmeJOuuwcbdP1qcy62GjOzNG8y2goK1Aajo6Jc2ajd8+dR9sIFaoORzSQi5kNAFLP5xly3K+bNumBzK/nOnCM/NuyCWBUHW9qwUddF4Z5e2IexWScyIQJso2bbtL28jJyVFWo1nQ3bNNun2VYtYh4ERDGbZ6x1u1JeGQcbm8gLM4UP5ooAb9zhuyGYKYyySafbxetYsS0/D3boGZcV9Dxy8SbivLnEK2uRzEZAFHNmj68+VwdbcBQbc76z59XqOFDfSPzy112gCOzGym1Nn5ZNWSvbpq1Q0m644fHqOXvBfMpZtlitrG0whSjXPlMik7kXLYo5c8c26Vem7MYdnRSAW1ugvoE8R46R5/CnamWc6Rt3SQczzgpZSduKiyh//VpyzpxBuUsXkxNmDvalFnt0nKAa8DRRzAYcFKN1iaPm2DTB/sWeI0fJc/Aw+c7VGa2bpuxP7vKllLtyGVbQSxHYMmvEV9otvtLpPhlEMaf7COrVf0TTReBXHMYK2Y9IO1bGAwc/UX7HejUp9caPAK+Yc9fcQAW3bCDeMGQ7NLvjiaQnAqKY03Pc9Os1K2RwTfAKefDoMep7fy95T56Ge9sI54R+DUvNyUDAmptL+evWUNHdGykHvtG2YvB8iIJOBrQprUMUc0rhNnZjQ16v4qAYOPAJ9Wzdobws2AVOJP0QYNKl3NUrqeT+eyl3xTK44eVJOHgaDaMo5jQaLL26yh4WHAbdu20Xdb7+lgoI4Y0+kfRHwOJ2Uw7s0GWPPahW0szVYUGouIixERDFbOzx0bd3YF4bjg5R3+4Pqf35l+H+dk5xVejbqNQ+HQhYnA642tVSxZeepKI7bh3x4GDmPBFDIiCK2ZDDkoJOQSkPHjtO7c++RAOHDovLWwogn/YmoIiZb9o9bw7N/sF/oGwEq4gP9LSPyrgdEMU8LiyZ+yWHRQcQKt329LPUv3efYnkbDsNskeEEQpk7orFfGTPfsc25+J47qPTzT5AL0YUcDi5iHAREMRtnLHTvCfNVdL3+NvW8t1NxWET9ft3blAaMiwBvEHImluJ776LSRx8kOwJXRIyBgChmY4yDrr2IIO2S55Mj1L1lG3lPnEKKpT4Jm9YV8fSpXEUSImWWe/5cqvydLyNYZTnMHbI5ON0jKJyC0z0COrbPnhVMt9mzbSf179lLwdZ25X2hY5NSdZohwLwmioqVcybiB7vg5g1UBBMH26ElxHv6BlNWzNOHva4ts9liYN8B6t3xvvJH5hx5IoLAVAhwDkMOTCm+7x7Kv2mdyroy1TlyPPkIiGJOPqbTXqPv9Dnq3bkbm3v7yQ/WN07RJCIIaEUgC37OvGIuvP0WuNbdpswcWs+VcslBQBRzcnA0RC1DPj954PrW+94u5QLHj6gigkC8CDhA2J+3ehUVbrxVrZ4ltDteJGM/TxRz7JgZ8gxmfmOSIfa48J05L7ZkQ45S+nUqC1m/mRSp5IFNlLd2teKETr+rSL8ey+Zf+o3ZVT0ejoRBUH+Jut9+l3rf/0ixwQlR/VUQyT8JIMBcKZxAN9zTQ4GGJip9aDNMG7wxaE+gVjl1KgRkxTwVQgY+zvwWA/sPYpW8C/bkA8IAZ+CxyoSuMXNdwc3r4Pd8pyLqZ94NEX0QEMWsD6761ooovUj/ADELXPNPfkGh1jbJracv4lL7ZQQ4atBRVUnVf/j7lLdqOdnhA03IqiKSXAREMScXT91r4+SmobZ26tvzMbX89JdYJXslnFp31KWBqxCAInbAra7syUdVWDcralbYIslDQBRz8rDUvSYOGAk2gufimRep680turcnDQgCUyFQ+vADVPnUF8hZUy0BKVOBFcNx2fyLAazpLMqbMH54XrT9y2+oZ8fu6eyKtC0IXEGAFwhRn48qv/4UuefOJvbiEEkcAVkxJ46h7jUwkf0gslE3/finSIJ6Xvf2pAFBIFYEXDOrqeZ734FL3Roh4o8VvHHKi2IeBxQjfcVBI727PqDmf/45hTu7xJ5spMGRvnyGALie7aWlVP3tb1LRnbdLnsHPkInrk5gy4oItNScNeX3KFa7t6WdULj7hTE4N7tJKHAjAUyjc3U2tP3uamN+bXeqsOdlxVCSnMAKimA06D8Jg+up5dzt1vvKG8sIgsICJCAKGRgBzlD2G2p95Ae6bESrZfA+Uc46hu2zUzokpw4AjE+4Fof1rb1PXG1so1N4hPsoGHCPp0sQIjPg6V1DpIw+ol71ICPgnRmv8I7JiHh+XafuW6To7X3uLut96l4JYfchKedqGQhqOEwH2tQ+2tCFbzhYsKqLI0P2QZEeJEUsJ2YkRMD2LjyjlN8F7sRWk9m2ilPUEW+rWFwGYNXgO81zufO1NcG306ttehtUuitkgA8rmC7VSfnsbhVpaRSkbZFykGwkgwDZnzOVuzGme2zzHRbQhIIpZG066lhryepU9WZkvMJGFHU5XuKXyFCLAcznIyhmmOd434U1tkakREMU8NUa6lmCXuG54X/BGn5gvdIVaKp8uBC6bNXiOs6cRz3mRyREQxTw5Proe5eARpuzseP5lMMTJRp+uYEvl04sAmzXgYcTunzznee6LTIyAKOaJsdH1CIdZc0QfB48Em5rFJU5XtKVyIyCgvDUw13nO89zne0BkfAREMY+Pi67fMiGRB2mgmv/p58olTmzKusItlRsIAWVzhhsoUwww/wvfCyLXIyCK+XpMdP2GqTv9F+up8W/+AWHW4L7AI56IIGAqBDDnmfeFSbmYMZHvCZGrERDFfDUeuv6nHuWYT/mXz1AAj3TCfaEr3FK5kREAtwYzJTKNLXOM870h8hkCopg/w0LfT7z5AYd7JrkXPmV9oZba0wcBvhf4nmCODVmofDZuopg/w0LXT4qUaPsuyTyiK8pSeToiwGT7fXv2qTyW6dh/PfosilkPVK+pk7NZez49Tp0vv3HNEflXEBAEGIGWn/6LSi7M94oI8tsKCPoiMBwJ08D+g9T8jz+lUFe3vo1J7YJAmiLASYU54zvfK3zPmF1EMes8A/x1l5RDPduXxQNDZ7Cl+vRFAJuBfI9w8AnfM2YXof3UcQYE4ArU/fa71L/3gOw664izVJ0ZCLBnBt8rtsJCKnM6yD1ndmZcWBxXISvmOEDTcgqHnA4giKT3/Y9oaHBQyylSRhAwPQJ8r/R9sAcBWIdNHbYtilmnW2Hg4wPUvWUbhTs6dWpBqhUEMhOBcEcXTBo7yXPocGZeoIarEsWsAaRYi/jrLlLf+3vgQF8nFJ6xgiflTY8Ah237zpynXtibfafPmRIPsTEnedgjnkHq3f0heYQHIMnISnVmQoDd5gawYnZUVpC9vAypqQrNdPniLpfM0eaYfzZh9H3wEYXEhJFMaKUuEyIQ7u7BZuA+GtiHzXOT8WmIKSOJE95/Aa5xW7cTv4sIAoJA4gj46xupF2HbZrunRDEnPndUDdEg+JW37ybv6bM0LDyzSUJVqjE7Anwv8T3Vs20nRQY8poFDFHOShnrw6HH12BWW6L4kISrVCAIjCPA91b/nY/J88qlpIBHFnISh5tTsbb9+TnHLJqE6qUIQEASuQYDzYXZv2Urhnp5rjmTmv6KYExzX4cgQdb3+NsJIL0o2hgSxlNMFgYkQYC8N74lT6l7jey7TRRRzgiMcaG5RzvARScueIJJyuiAwOQJ8jzGXhkoyMXnRtD8qijmRIQTxSudLr4Dku8O0gSRZFgtlWa2UZbORxW4ni8NBFvAcqBd/xisL3/NxLkdZWYkgLueaGAGVL7AFySaefhaEYMMZjYQEmMQ7vJwa58JF5Ykx5PXGW0tan2dzZFP+uvWUu2QhuWsqKWfBXMqZXU22bLe6Ls6CHOzqJR9uJn99M3lOnCPPkaPkvXQ2ra9bOj99CET9frXJPnjsBOWuWAbi4sz8oc/q6/dk9k+PTnOIs/ue/vZ3ETp6zlTMcRaXiwpXr6eqzz1ExWtXUBavjrEaJqyc+T3Lioew0VUxfryGsbLhlQ4zh3GQwJA/QL76Juo7dJzafvsm+VvrcTzzbYY6TUNTVpvlsFPhzRto3v/zZ+pJLBNBkBVzHKPKK8F+RPex07tZkkg6SkqpbPNmmvH4ZnKWFJOtII+sbtfk6EFBZ1n5BWVt56nmJFtONtkL8il34XyqfPAu6j18jBr++WnyNTKWki15ckDlKCMwHEaELcK1e3d9SIUbb1HmskxDRhRzHCPKO8Ttz79M0WAwjrPT6xRbXgEVrVtHlU/cT/nLlpCztHhE0cZ7GVDWFqx4+GXPzyV7USHlL15AXe/vo/Y33iXfpQsUjYTirV3OMwMCeBIb8vrUPZi/fo0oZjOM+VTXyErZc+AT8p0F6xUmSCaLq7qGKh7cTFUPbyJXdeXUK+Q4wLDlZqvVs6O4GO/zqPEXz1Lf4cMUDWf+j14ccMkpowjg3vOfO6ciAkvuv5esOTmjRzLiXVbMMQ4jh4V2vvY2VsuZvarLW7aMKh97iMruvJXcUMp6i6O0iIo3rMEqOo9aX91Cnbt2U6izQ+9mpf40RoDvQY4hyF+7GosGbDhjnyNTRBRzDCPJWUm82A0ePH4yhrPSr2je8mU04/NPUPndt5GjpChlF8AudgU3LCNbXi5ZXE5qf2cblHN7ytqXhtIPAd7nGdh/iGxFRWTDj3qmSOb8xKRgRCIIB+1+5z1il51MlZyFi6jqiceo7K7UKuWxeObMn40fhkeofNM9sEGXjD0knwWBqxBgT5/ubTso1I6nK3j/ZIqIYtY4kmq1DJYrz+GjGs9Iv2LuOXOhlB+hMqyUnTAtTKfkLphDVY8/QCW33IzAFed0dkXaNjgCnOVk8NNjxEkqMkVEMWscyXBHB3hh38ducGYGk7Dyq3jgPqq4705ylRtjlZq3aB5VPrqZ8leu0DhKUsyMCHBMQaYlpxDFrGEmRzko4mwdDcAbI1OlaO1aqth0B7kqyxK+xGgoTEOBIPySE3u05DDughuWw1XvIXJW6L8BmfCFSwXThoD35BkKNDRmjAurbP5pmEpMOcgpbji1eiaKvbCIan7vy5Q9d1ZclxceGKRQdy+FQTITDfgp1D9ABKXMwSTsxmTLyyNHWTHZeVMPG3yxCLvTFa1ZRZ577qKWZ5+Hh2Jiyj6WtqVs+iDA96bn4GHKrp1Prlk16dPxCXoqinkCYEa/5s2FwKUGpFI/MvpVxr2XbLwDSnm2CvqI5eI4AtLf2Aq/46PUu/9TGjhyjILtLVcCRLKsNijjQsqpraWim29EgMpC+CovIGeMphJ21yvbeDN1bd0B7g3x0ohljMxUduDgJ1Rw83pyzqhK+1BtUcxTzNxQZxcNnjgJt62uKUqm52GrO5tmPPmAiujTfAVw7o8M+mjgxBmq+5v/TYNnjiMg5Hq/bg6xDvV1UehAF/Ue2ItMx8VU9ehjVPPU4+QoL8Wmnrbpl2WzUvacWVTCq+YXns/4wB7N4yAFr0Ig2NQCkqxj5F4wH8o5vU1fYmO+amiv+QcKKNjQRN6jJ645kDn/Ft26kbJn12hfLQOTMHa/W17fSsf+zf8N5cxRetcr5fEQ4uwTjb/+NR394/8EZV4Xkw3aVVVOlfffCea6/PGqlu8EAYWAB6vmwMVLaf/jLYp5kgkdGfTS4MnTGRxQkkUV998FG7D2cFZeKbe+8R6d++H/oIgPtmQo6lhkOBKmwXMn6dgf/ynMHl2aeax51ezCKqjo1ltiaU7KmgwB37k6CtQ3EJvZ0llEMU8yeuHOTgohQ0lmShY5C8qoeN1KzRwYPNnZfHHxb/8hIUh4Ay/Y3UrHvvtfkPlY+4YqM9oV33JjQm3LyZmPAMca+M6cT+sL1WbkS+tLjL/z3uOnqX/fwfgrMPKZIBjngJIsjXZevpRAWxc1/uZlivgTTyPPHM2eM0epY9dH8J2+4wq5/mSQ2UAzWrx+Nc377ncnKxb3MfYsGRrDgTKEJ6aIxwOaySF45HiVD3vU56Mhn5dCnu6425ET9UWAkzHkb1hLuStBpJ+mIop5goHjEE/f+TqKIAN2JkpWVhblrQHRvc2u6fKYMMZ7ARlb9n4Ys/liogbY46X5V7+lEijb0awnE5Xl79mvmT00Zn7pkcmKxX1McWuPMc3wjwe7/Q3zd0z2z+mM2F0Pn6PY2GSzTqCjS0Wc+epbKNDSDl/aZgo0NuJJoAfFhF867sFI4ESmBA3UNyJMu5McFYn75SfQlbhPFcU8AXR+KCE/7FXq5pygTFp/zYp56QJkHUEePg3ib0auNdiWh5LME+KtO0P9R0+RvTCfrJdTUk3WHVbOzONsBGFFnls7TyVL4IAa/vGKqvcgVtUjSnvgJNJpHT0Nt8IGCnZkqlnMCKMxpg/4IWU7MweciGIeg0smfPRfrCf/pfpMuJRxr4FXzNmzZoD0XptijiBoZBDRVckW5l32nLlAhWtXaVLMyW4/kfoYO6t7BD9b7tUbqPyDngclXbh6JYUfGsAKeoD82K/o++QEDcDLh3+QRPRDwH/+IuzMZynvBjwVIhlwuomsmMcZsUBjE/nPX6AhcC9nrEAxs1lApX3ScJFDiOjj4BE9xIsfQQ57zyTh7OH8BMAvdvVj75U83xKEmK+kYGsHDdbVUf+x09T30QEKD3Rn7pPZNA1qpL+ffOcuUKC5FXsp8UW0TlPXVbOimMdBn00YHO2XsWYMvmYkF1Z2XSjoqYS5L8J9/dgY04fuNIgs2pmeeIAT1Npy3GSbN4ty5taAmGkJFa67kcrvuIU63/+Y+g8cgqdKp+Q9nGoyajzO9y77M3OyZFHMGkEzcjHekGLComDGusnFjj67t+n5IxX1BVC/iTJls5KG73j+kgXqlT1/LvUuW0xdu/eQ58RxbCpm8JNa7NMv7jN4Az8AcyTf07w3kU6SXr1NAbJqMLFxwCmkMlrY0QB+yZwUlVdzk4kFnhtMSJRlsUGBJt/TwFZUkHY3zmR4xXosDwraXVNFOfPnUPuW96h7zx5QAHTGWo2UvwYB9s4INjVTqK2DnDNnXHPU2P+KYr5mfNgxPdRmDqIcZoWzssKdQjGzHdqanaMIiUL9yecMYVY7K3yUzSy8eVhy2zqk8ioGj0gJdSIrB28+C5te/LOCvWbYTOavu5h2ilki/64Zd3/dBQp1mGC1wi5FCInWmo7HlptL2fPnXYNWcv5lQnwtrnLJac3YteQtmU+zvvYlqv7i58D4hwCgLLlFExmxcFcX+Zk7I81ERn3MgCnf08Zm5do05uuM/MhBExxeHY1os+06Soup8KY1UBTa3Ou0gmYvKoY/9UJRzGMAc8C0U/nIfVT1ucfIWVU15oh8jBWBMALEOGEr39vpJGLKGDNa7CLHNuZhjcpqzKnp9xG71v2fHKfqxzcTISP1VOIoKaSSm9dS64uvUbCzdarimo+X3nMv/KmrtVGA4sckgkzlAQS7JFOyLNYRt8ExJh3l3w0TDru9sSlntAx/z4RKbJvX6gMeT19ZOZcjo0wIiqX5+RczNklDPNjEcg7fy3xPs19zOoVoi2IeM8reU2cp3N0z5pvM/cgrZt/Z89gADGu6SFZCbmyglD90PzWBupNZ4hIVW34BwqsfJXuBNirPoUAIARrH6fxf/TjRpq863+p2kwWZUsb6dFth87Uh+wpziXAWFZWN5fK7DZGHLvBJc0YWtdsP5W1BEIMFP3CssPnz2LquaiyGf9jPvHzTneSvb6aunTvElS4G7MYW5Xvae+qMKOaxoKTLZ+X3iM0Wdkw3hUAxey+dRZhwl1KMvAqcSjjzyCyQ3HNQBFN3xr0xxe5iUHrVX3mKcubMVCvQqdrm40zD2rv/CHkvntZSXPcyVkc22YtKVfos96yZlLdqCezCNZSLl6O4SD0FWBwOpdx55R2PFKxYTDO/8Ch5kQna13QxnipMfw7f0+w2x0E+U3kgGQUsWTFfHokwmMU4vp5ZxMwkLW/tpLnfqiBHkbZVK2ceWfyXfzLCp9zTpngiYsJLKeVcmvHUV2n+d35Xs1LmNthe2L3jg5ia07PwUAhMc+0NqgnvhVPUtWub+myxOeBdUUH5q1ZSyV23KGpVJ2z0dNk0EmufchYvoMrPP0wX/u5HSSOQirUP6Vye72l2m2M7M+egTAexfv9Pf/Bf06GjevfRd+48UqDvNY0pYxTPqDcM2s2NxI/nWoQf0R3FhSCs34D8e4MUaGrUrJzZw8BVWkUzv/V7NO9ffTkmpcwkQQPHTlLT80gtZXDhYJmIz0O+i+ehrHeD/Gkrwq/PIxGtk3LmxZ4olOlOs8hC/YdOUrjfHKa2ZA+xBSnUOEmrq6Y62VXrUp8o5suw9m7bSZ7DR8C5m167t4nOCr7RcxYvgf24SnN6KX4s5xV26e3rkcevHOm3WmFmAOH9JBmsrdm58NO9nRb/xZ/gvHUxZ8v2XWigSz9/DvbWS4lecurO50dnbLIOBQL4Aaunnj0fgzb1CEKxQXMaQ9YYfvzOgklkOGuYej/en7r+Z1BLVtj/WTHnLFuSFlclpozLwxSAm9yQVx8uCCPPBE6Y2vLC68S2TFuudrIX3gy0YfNrxmP3UdmdN9EAkgp4zl4EAx3s1uDB5aAVDl6xl5VQwaqlILi/AY/3Rcr2qsWePRazIRAcDYK/pO/AvrFfp89n/GBxlGU03Eu9h/bTkT/8d1T1+JM063ef0OzZwV4aRWtWkj2nkMLevvS5doP0lO3M3pOn0JsnDNKjybshihn4RLGiCYLcnLNTmFE8p45T29vbscn0CDkrSmOCgFd+/GLzRuHaG9QTxzDnW4NiJvZWgJcCR7WxqSTeDbDB03VwGXsd45TmP5xYQUeDQfIhEo09W5wVJVR+962anh6UCamslAo2rKOuHSO27JgGyuSF+akl2AqyLLxbXMaPMo1vqzjDBpkHLILMz3oS9RgZsihY49pf3zIScAKy93iEI/ecpUXIuF1NObVzKWfBHNhTZykTCZPgx6uUfQ0t1L5tlyL3iadfRjxHeQC1tVH9T35JnM5KZUbR0FH+ASxA1hmROBBA9pkh3OPMs54OIooZo8Q0n1EELphZAq1N1PzcK9hgO22YABvm8uj5aB91bN0GO22GPc2wu+L5c/jR+UDzvgYr5kKYhSy2qQOCzDyXJ7p2ppYNtiQvOGqidpLxvShmoMi/ovyoY2ZhT4K+Q4eo9fV3kNtvxAVsOvFgu3LPngPU9toWPIKmx80UK17M1Nf26luIpOzS9LRmAXWlE+6Krhmxe3bE2rdMLM9mDOZZTwcRxYxRCjQ0qVxt6TBgevaRV6Vd739ALS+/SYPnL+nZ1KR1s1Lufn8fNb/wCnnUhs2kxdP6oLcOgSOXMP+CYU3Xwd4FeSuWaSorha5GgOcV82akg5heMQ+HwxSCjVltWKXDiOncx1BnB7W/sw2bba/B5nxWkYzr3ORV1bP5omvXXmp67rfUf/gwSJbis3lfVamB/xkeCiMZ7UkV1ailm+w2l1M7R0tRKXMNAnyPh2Db53ve6GJ6xRzq6lZscip1vdFHK0X9C3W2U/vb71LjL59XIdAc3JEKURt9b2+jxqefBcESlHI4s5XyKKZ9h46pzefR/yd7t4C7gzdYRWJHgO9xTirM97zRxfTucir1jEYiH6MPZjL7F+7rVptuIfDZVn3uYcpfvnQkeasGTo1Y+xHxeOGnfJE63tut2sxUm/JEuDBfMNs/tQi7H+bMERuzFqzGKzOMe53tzM6qyvEOG+Y7UcwILImmwaPNdMyYaDhIPfs+BtnRJSq7524qu/s2lf6IfZLZ1pmoMClRoKUdj/InqPWVd2jw9MnM877QAFLE04cQbp/aAJzKrZADe9hnnPk4Mt3MowG6mIvwvR5obKKCm9fHfG4qTzC9YuZ8YKbgX05gVgXb27AR9yK8JPZR+QP3YvW8CD7Ks8GsVohM2+BxsGIaTZ42cKR1DrAIR8AxDEWER8p+0Kx2bNlJfQf3Y8VoXnfFaCRI/tZ2ysPmFNOLTikcEl9YRoHuFiE1mhKsqwuwOSMMLxiji+kVcxC/numwGTDdE4n5l331dXTpny9AGedR/g2rqeze2ykXgSTMnMabUuzOxfzFV6gVoYj5RlAvEJYP+UFyjx/Cjvf2UP++Q+StP2cexQICJ4sdGDntsCdfn+jX39gK9jO/JsWsuErKy6GY2Y0QfBxjRK24QfzPHB2myjw+BoPJPnLG7BAoA4wuplfMIfYhxWCJaEQAyjbiHcDqebd68VnZsxYom52jspxceI0mVmUS/nBvHzI+92DDpYt8586Zk+cB4en23Dyk0FpJ7lpkwn7tVUUvO5bPmnlatD65sfK1V5RR1umrf9eYtN8FulFbQRGeSroo2I2kwhgvkc8Q4EVYsKHxsy8M+sncihmTNowdWl7RicSPgK/hPPFLZHwErA43Fa1fT7X/6btkh32+6MaVdP6Hf0uBLqx4LzPyRcBqqDX/IrdybWZzVtZ5i5bR3D/6FuUunk9Nv3oJ5qeX8SNqksQP40N/3bcq1RR7ZfAPFvO5GFRMrZiDyAU2PBQ16NBItzIFgcL1q6n2+/8W6ahKlDIoA3k+5zk8+u3/CE7rVpUJhs0Ymp/cwIntrKq4SrGU3nc/zfvXXwNHyWyltKufeoKGggFqef63FB0yh9uh1vnC9zybM/gJz6hiaj/mUBse9RCKLCII6IVALriuKx5+iJyVYO27vEJjX2S2za9++u+p+LY7FNtZqLNbMc9p7sfluqx2N1bJ36Ha7/0BPGZmjZBF4Zirsgx7AHcgs7mxvQ80X28yC8L+HuR738Bi6hUzs01xUlIRQUAPBHIWLqLqL3+eeIWsNuXGNMKc1Jzcdslf/F9U/6vfjmT+1jgV2YyhqFbzSmjhn/8H0K2uInthwVUJYLk9JjyKfPFxCg94yHPs0zGtm/sjb4qqRRkZl6nP1Io5UI9NADFlmPsu1enqneVVVHH/fUjbdQc8LdzjtsLKk/mvZ3/t8+RvbiNXlbZHa1bqebAjl/yv/0Z5cF20gXJ1dDU+tiHO2l18042IbB2kC3h0D3bAvU5E2ZfH84wxEjSmVszhXubCFRuzkSZkJvTF6sxG+qxbqRzuhPaCvCkvibOPcznlajhlaehgm52K165UGWLYLDKZ2HLRl40b4B3TS5f+8ecU8V/vqjfZ+Zl4jO95o/sym9rGrDJiiykjE++9absmi9VO5ZvupipktXbPmqG5Hxan4zpzx0QnZ1ngfofkA1Mp5dHz7YgULN98F8186vNksTpGvzbvO5PmDwwY+vpNrZgj3T1qR9zQIySdSysEcpcsobLNd8PUsACK026IvrPJhM0k5Q9tomKs5E0vWIwxP4uRxdSKmV2UlD+jkUdI+pZWCER8g+S92ICAml5j9RsbhhaEzmdhRW924Q3/Ia+xFfPkBqoMH0EViq1xJzzDoUjK5VnsLuSkWwkbqI0Gz55HxF9HUupNp0p8Fy5Q66tvqKClygfuJneNdnOGXtfJ/CQ+/Fi0vPyWolPVq520qRdBPRFEpBpZTK2YxcacvKlpdeVQ8Yb1cA97gizwEujYupM6t++Av2hb8hpJk5p8F+rAlvc6vCE8sDffSbmL5iWFjS+eyw/3e2jg+BnqeHc7tb/5LoJOjL1SjOcaYz7ncmLWmM9L4QnmVsxMAC+bfwlPN2dFFRWtWUPVTz1J+csWgqjHofxqbXm5SjlzTsUoSJDMJP6Gemp58WXy1zdR9RcfQ0j2DQqXVGLAGbi7kTexFXkF+w4ewireXGOQSqyT3ZapFXM0GLyGmyvZ8GZ+fa6ZM6ny4Yep6vHN5J5RARsmmM0guQgNdn7ti5RdU01Nz7xEntPIvm0yxRAZHKDuDz5QbHLDQxHQpS4hR2mR7pOCQ46D8Fvu3LGHWmBWGTx1Uvc206kBtl7yvW9kMbVijsC3UyQ+BLJALemeVUPVX/0KzXhkk4pEu7Ym9s0tv+9OsuXmUMPPn6HBi3V4vDcXqQ4nG+g7dBDBHR0044tPUuWD9yDTNTgzdBLm2/DVN8Oe/LZKDxbsYGpQkasQYD/mHmPf+6ZWzFcNlvyjDQHs7lsdTuSdm0MLvv89KlyzfFJ/WiuI9Jm3Oad2Ll362bPUufXdcfmItTWenqU4BNhXf5Hqf/YL5a0x63c/R44ycFjDjS2ZEg2GyHuhnur/96+pc+duiobMm3wgmbhOR12imKcD9XRtkzkacnKpYPkNtOgv/yO5OYQY32mR7Nkzad4f/R5Z3O5x+Yi11JHuZcI9PTDrPENe5Ddc+IM/Rg7FKniwjJh+Er22IWQ/6fv0pIru4+zibDoRSV8Esvr6PaZ1GDt48z3pO3Kp7jkUsKOomCoeeIjm/ZtvjGu60NIlViBdH+y/jo9Yy7mZUiYL2UwcpVW06p/+Goxwsyd94tByzcwx3PDrV6jpN88gh2KzllOkDBBYu3e7YXFI7rOUYS9TOpYoAq6qGTTrW9+k2j/5dtxKmfvA2U2YbW0llJILyomVlNmEM5cwD/On4GPu3PERUm5py5A9Hk4cwXbuf/4TNfzs5xRoFZKi8TBKx+9kxZyOo5bCPmdZbFS4ejXN/sNvUuENS6+kjUq0C7zK87e00tkf/oh6D+xFMtb4lVOifZmu8/lHyYqN0crHHqfZ3/wyucA0p1ng5ulv7aDTf/bX8FM+gkwlg+L6qRm8kYKyYo4RMCluDAQ4JVL5pnup9k//HfyUlydNKfPVjeUjrv7KU2QvLjbGRaewF7xyZvrJNuQAvPDjX2CDsElT6xzJ13PgUzr2x39CfYcPiFLWhFp6FZLNv/Qar5T1VvEJP7iZZjz5IDwwqlWYdbIbH8tH7IR/bwty1PkbG0yX3ZmVc+e2beQ7f4FmffMpKrllHbE3y3jCpovWN7ZhE/FZ8iOpqOSrHA+l9P/O1IrZVlREkX741Qon81UzOXfJUprx+CNUdvetIHJHNmbkmNNT2K+36uFNlDNnJjX+y3PUd+QIsf+vmYT9uweOH6P6n/ySIoNe2OFvvY7LOYhs483PvUatb75JgSZtq2szYaj5WuGmyBlfjCymVswWp5PY2cu0binXzEzmEi5YuwZRfA9Tya3ryFGif5TaaBc4Iq745rX4EbCR9YU86t2/HwrK2Jy5o31P1jtHRnrOnKaGf/kVnhya4QFzr4qgZP9kz6lz1PTcq8DlAKL6JGgkEcz5nud738hiasVs5IFJdd+sTmxCPbxZcQnnL1983WotFf1hjo3CdavIlp9Hbvg9d27ficf1+lQ0bZg2hsEp4j13HrbnQfUqv+8uYnra5udeUT9WQ34hIUp4sOD6KYo5YRT1q8CWn0vhrk6YMvRrIx1qdhSXUeVDm6nqyYcoe+6shP1qE7lmK/LUFaxags3AAqWg2954m5itzWzCrHwdW98j36VLxGHW/Z8chXnHfJ4ruow7FDN7wxhZTL1itsPG7M/iFdmQkcdI974VwB1uxhcehVKuSXqYcLydzwaPcdXD9ynvDabQZJ5jswnzWfeYkNNa93GGLSPLINllJrpWfXd1JmrVIN9bc7MR4MAWJ3ML2zajWJUZjQKV7c45c2apMHBzj5BcfTIR4HvempOdzCqTXpepFbMlB48zopip54M91P7WNkSOdRgma3g0jI2w0+dB8L6DPCdPJX3iS4UmRgCBPfYUbmzHg7SpFbOtIB/bs7Jijg6FFGdyxzs7KdytLeUOBzmE+wagyLX5tHDKePYu0Cr+hhZqeelN+PfuMB2Ps1aMpFycCGAxphZlcZ6eitNMrZjtZaWGsammYrAna2PI76HG37wIgqF9cFPzTVwUocARrw+bUccQfXaUVN7EiUtfORIZGKSBk+fAS9x95buJPnA6pM73PgDJ/B6kQpqkLxNVIN8LApMgwIFNvL9kZDG3YoZblpgyPpuewY4WanrhFer5+BC4K64P8ODMGKGePur+cD8d//d/DlNDnebIMzaTNDz9knoF27smNJkMef3wRthNbe9shRIXf93PRkc+JQ0BBEy5Zs9KWnV6VGRur4yKclkxXzOrPMc+pWYEeHC+viL4FI+SuXPoLyvX1te3goj9F1DIIRWhxqngNQksRuE+KPXdOybkI2ZzR8eujxBI8RJ5z57RVK0UEgRiRUCRR2F+G1lMvWJ2VFbAxpwconIjD3Ksfev7eD9MCbsp0AYfbyheVpjeugY6/zc/oYs//ofPMmNoVcroADv0O8pKYGcOUM+e3fTJ1/8tDZ6/BN/cy4TuqCvY1kXtb7xFg6dlsy/WMZPyMSAAU4aT730Di6kVs5NXzDrzQBh47CfsGm8Gtr32NjU/8woFYBPu/uAAnfrP/x1pod757BxWpK3tcAHXFp2TZbPB7c2tzh+Pj5jbOfc//p769h/+rA35JAjogADf8w5wwBhZTG3KYPuyvbSEIn39mm2lRh7MZPYt4hugtje2YHV7gML9vRTsbr/OLqzZjIGOWZBCyZo9xncUlJchkMWf/i//TfER+7B6HjhxlIZMmqfOnlNI2bW1yGxSqvIB2osKyeKwqyFlIv1AWweF8Aq2tpGv4Xwyh9pUdTHdrAP3vNH3lsytmDElXcj0HGD6RL+5o/+uuzuxIg71dFKoD14USCbK5oyxwlaMcHvndd+PLTP2M98Q1ssr5tHvx/IRR0MIcgnBnY4rNoNgUZAzp5YK1t9I5ffeSq7KcvBdu1WkY5bViic5mNhGfeyByTBMPhwENAyMgt09ygzUue0D8iC/XwQeNbH8SJoB3omukUmy2BvL6GJ6xcyPNPyYLXI9ApzdmZXy+AJTRof2gBRrtpuya6rGrYr5iM0iFpebCteup/IH7qKCJQuJfekdxVgd2zEHRxXxZGDgd8s1owK5AudS8frVKiv2wPEz1LnlPfI3N0B5hyc72/THOBTbWTPT8DiYXiMpX2ZenYjEhgBWceE+JoC6eiU9USWc689dVQGThhPK43pXvInOy5Tvra5sYp7rqsfvp4KVy5RytcVDpMM8D1hI2EHAxS/my85ftpiK1q6izp0fYtN2B2hB2zIFtqRfhzJl4OnE6GJ6xezCr6fF4IQmRp1E0Qgeq+HXbC8qGHn0nqSj7HbHNmZbXiGFerFpaCJxVlVR+X2bYLK4g3Jr5yaUzPZa2JiNj1+86nbNqAQz31Jq/e2b1PfJYdMlG7gWm/H+53ud73mjiyhmkORkXd5kMfpgGbF/3kuNMFHMgH106qcOiwur5rlzTKOYLTYH5S1dQhWPPYB0URsoe9YM3YaQV4KcAsyJhK6O4iJyvFJK3R/tpXDv1JGWunXKgBXzve7CPW90Mb1i5h1aW36+2vGW/GmxT1dffTNFb4pAMU99LvNfF964AuHc+6YunOYlLHaQ/jOd6hefoGJkg2GzQyqEV89F625Qc5rt1x3btlOo01xPKBPhzBuqfK8rr4yJChnke9MrZt4McFRVkv8SkoD6/QYZlvTphu8cgkTYm0KDsE2VH7WzkMKKqUYzVXilzEq5+sufo5KNG5KaXVwLZmyDzl+2EEE9DuWn3/7OVijnDi2nZnQZvtfVnlIamC5NHWAyOgvd8+ak/OYZbTvd3z3HTozLqzHedbFfbjZSRuXMrx3vcMZ8x+YLXilPh1IeC2LugjnIcv4wlW68HXboMT7kYwuZ6DP/ULlm6mdOSiaUopiBJtuc2P4pEjsCgZZGuM11fRZaPUkVvAHohA9p5RMPgYMjMx/WeKOPbcpsvmBPlOmWnHmzqOrR+2FCuhGYT70PMN391bN93nzOXrRQzyaSVrcoZkDpnFGlHvuShqqJKmLXt74jJxWhkZbL5swRFZtup5wFWDVr8dvVUqlByvCqlL0veKMvVTblqS6dNwXzVyyGWeUJclUZ3xthqutJ5LgFvvTu2vmJVJGyc0UxA2r33NlkZbapDFMUqZpF/YePIaOztuzNWUhMwF4Ds//g6yCSqbzCXpeqvurZTt6y5fjRuTNu7wuOruTkA/6mVgSONICF75Ji4uMN1mBXr8qWHU//+RE+f9kiqnj0ASxANOzSxtOIwc/hpzVmTHTClz4dJDOfJ2NEns0YDigJy/kLFEWqeJHYEOjbdwCbS13kroai1UAKxYqi4r6NFGjvprZXXyZ/Q1Pah2NzRF/1lx6l3MWxr8iGI0MIf++lUHcv9ew/Qv2fnqRwZzcNISEBZ4hxVpZR7tKFlLdwLuUvX0x2eFvY8mLL8sxudJUP3kO9ew9R/5EDsQ1wBpS2wIzhqqlJG5OlKObLky532RLyYiMrKIo55tsw4u2j3kNHyT27hpxIoKpF2HVpzjc+T5Wb76Azf/5XNHDqBDKjDI7YqkFwlG5SuG4Dgkfmx2xXZoIi36UmuvijX0Apf4xV8eB1lz54jsDwt1N5s7irZ1H1V79AMx7bhIAdcGvEELXqLC+lGfjxGDh2GF4xkevayeQvmKfFWVOdNpdo/f6f/uC/pk1vdexoZMBDnk/xSI6Vi0jsCARbe7DBtBJ2TIS7xmAS4pVf5aP3QanPg3cH0lb190E5hyitMjHiehd87zuUv3IpQs61r3V4pdzwzGt07of/Cwlnj00dqYcfLGb669t/gAbrWuHdMocchXmazUHsFWOHy2LP3qNYoZvLfc45s5pKH3vI8DzMo3ee9lk0ekaGvueCv8BeWEBiyIhvgH2NddT7yadQsDM1r5rHtlR2101UtnE9bKk9Kpdg986P8EN5FP+3g0dJm5/02PpS+Tlndi3syjNVaLTWdlkp1/34aXBe/0Y9KcTCqhcNBal751aFz8of/XfKXTR/hARJQ+O8+Vp0+wYaPHdcQ+nMKcJPF87q9HCVY9RFMV+ee+xKw7+q1tNnaWhQ20ZW5kzbJFwJSI3akNW6YMkict62LuYKVQordqdjW+jmjVQORc1Ul0E8wQxebCQfXp5PT43Yo71eCvd0USRsjEStJXffTnZsaGqVIZjLLv30eSjlX0MpY67FQXXKUaqKz/rP/iet/NH/Sy7Y97UIP6FUPXQXNf78Z1qKZ0QZK54SOMefvUT7GE33hYtiHh0BPI665swGDWOBKOZRTGJ897c2UtOLr5O1II8K4KIVj7CCzsLmIG8QsnBYsRtBAdENaygKZrZoGBGD8F4YBjdx2DOIDCtQ0HjnzN5DeHEGb/7MSp2V3tgfWU4mG8VxVozJlKL1CIHGza9FeKXshU256dln0M/r7cla6hgtw3zWgxfOwBzyKs3++hfIWQ4C+CmEbdLsS54zZyF562G8juNHYYomDHeY72m+t9WPv+F6N36HRDGPwSUHqz17STEFm1vGfCsftSLAG0o9H38Ec0a1YjtjL41Ehb08rNYRBjW6hm+CV425tfNU9hn+PByBwmZSfyhgRezP7/j+ikAJ8fdXfXflYPwfeLVqdY38kExVS7h/gJqef50iA/1TFdV0fBj8yx1vvUPl99xKjpJCTZuBKgJz4QKVCcUMBPt8T/O9nU4iinnMaLkXzEUuMOQBhFM+r2xEYkdgCKvAji1bla9y1WP3kwOUoHoJr/60sNrp1X6s9XLiWV9DM3Vtfy/WUyctH+rqAJPcQfVkoWnVDK6IgjXLqWvHVs182pN2wMAHFf8y7mm+t9NJJMBkzGixndk9bzb4hdPHFjWm+4b5GGxtBSfwa8gZCPKc3uSsDA1zcQl0hE0onpNnQcXZk0At1586PDxEvR9/Apuztno5/yIHnGTF4D1zfavp8Q2zyam9I9zb6SSimK8ZLSY0SoecYNd021D/su3Td/EiNb/wW2p4+nnynKozVP+mqzNKMZ+5oEvz/gsXtNusYcd3YZM1FrdGXTqdgkrt5WVpt1pmWEQxXzM53PPngTuDI9jMTfhyDSwx/zuqnFtfeZ0af/0CdX94AIrD3N4uKpjkYkPMWGo5IezpQ6SgV9nXpyrPK2WjcHlM1ddEjzsrkR9xYfqxGYqN+ZqRZxuzevSBvycHnYgkhkCosxN56LZToLWdSu+4lYqQQDRvyYLEKk3Ts9mTJKKTaWc4yl4oPuW1wpulkwoUs8WBzcq0iuKZ9IrGPWjNy4ObXA3oFoyf4+/aCxDFfA0iTDLuhmsNK2hRzNeAE+e/kUEP9R08APPGJRo4cRr8wDdRNrI8Z8+sgpsZbH8msHUydEy7acnWkQoUHizp5BIW53TSfBoHlLhrF6jktZpPMkhBUczjDET2olpywdbsr7s44nY1Thn5KjYE2JUu2NEKj423qXfPPiq8eR2yRS+m3PnzwfiFpxRke7ax0spgJa2I2mEm85yIDTstpa1gjXMgcpVd4aYUuA0qX+7hKUumbQH+gXKDZz07TWg+rwVaFPO1iOB/Z3UVZS+YR579n2AHXbgzxoEo7q/YjzjU16kUNCvpnHmLKH/VMipcswzsdDNUTjZ7YT4Y1PLABObMqBWgBcT52fD60UOcFUiIC4Y7LcJ+3r7mtowOLrHm50EpzyMXQuXTUUQxjzNqnBuMMx2w72P4gCjmcSBK2ldeRK7xq/WVlxG5hkfPmlmUh6jB/KV4aoHnALswWpxOpaR5xWnFZ/ZN5ZVhum3Q8hNB3qJ5SoEOBZIbfZizuBY/anmaxoWDcPyNLYRwG03l07EQmyNd4FlPVxHFPMHIuWbVqPj6gYOHM3plMcHlT8vXwY4WmDtaqO/Qx6r9LKsN3gPFyNOGsZhVTa4ZFYqEnrNtu0BhyfZpC8oQHluxtMYfdrPwWfnnXmtvhYlEL0XOCpf7OtVmGhPpFICBLm/pSupLYqZwq9uNzCkblUlIy8ANh4fgT30ewSWZqZiVGQMmDPe8eVrgMGQZUcwTDIsDNk/e0WU2rrF8CxMUl691QIDt0qHeDvUaOHZo3BYceSVYVedgUy0bY5VDTFiTZUeaeuzI8+dRsWK17dCJxIZTZblnwsVSA+WnDSaays89SP1HDym+j9H+xf2OH5yim29DwMgS2Oi1mTKiCOPuP3QMNBmZqZhtIJTKXjAfG/hlccM63SeKYp5kBLLh/5h3A1Y3H+6dpJQcmk4EQp5uIn5No9gLcqmi+C5NvsGsPMvvvIVaFq1E4M2RhDeX7a48qvnqk+SqRMCIRmGCJ/+lixm7Ys5fv5Zyli3WiIYxi0mAySTjkr1oAeWtXjlJCTkkCBCI5w/F5FrJppgVf/cX5CypgtklsVtwDhP0I7xa+SVrGAwOcuk5CKL8/k6UzswVsxNshBzxl86S2KxI5yvX0Hee7Mzjmq4uNxouUYokAYHePR9RoKVNM/EV20A5zdMKJrmvXQoTiAYXt7H9hPnC7s6n2h98n6oeuXfEF3zs8Uk+c9Lc9i07USIzlXLu8qXIj7hYMw3rJFBN6yFRzJPBjxvANXcO5a1dM1kpOWZyBCK+AWp7ZxeiG7Wna2I6U848wiT3M3/nd0C0X6wJRYvdQQXLV9PyH/0VzUBKLnsM2d2joTD56hvhR/6+prbSsVDuyuXkZBc53LvpLGJjnmL0HFjZ5N2wgvo+2EPBJuFpngIucx7GJlr39p3IunKLynnI7nxaxGK3qcwjTHJfcvNqREWeVVmsvWfPIQlAH+zPEVWNxeZAAM4Mysc8LFq3Cj7fK+FWWKXZfDHaF07b1fLyFhryGyPzy2i/kvXu4AQA2ATl93QXUcxTjCDvtHP2g/y1N1KnKOYp0DLv4VA3OEHe30turNaykSggFmEOZQ6oyYUvcunGm5GRxaMIiZj7grCydiCLiwXBI/aiQuVZEg8BkVotX6yn7vd3x9K1tCqbu+YG3KuzNHnHGP3CRDFrGCF2u8lbu5p63tsJ17nE0gFpaE6KpCECzKbXhVVz3tKFSnkqDpAYroODZ5zOYiSyHTFpqDRYSKPF9mhNYdZTtOUDq13DL56jcF9mBkxZc3Op4JYN8OVOPGvOFFCm5LDYmDXAzJFnHNqZszS90tNouDQpkkQEgu1t1PbKW9R/5HjCPsoqpRZC0pOhlANtCIHfthtEUgeTeLXGqip/3Rq1Sc9h75kgopg1jqID7jeFt9+C4IUYd9A11i/FMgOBgaPHqO31d8mjEyF+rCgFO7qpY+sueGJsBSVoMNbT06I8BxYV3b1RMUKmRYc1dFJMGRpA4iI27H7nrlpB2bADeo+d1HiWFDMbAqz8uvfsVdm92TyRu2DOtEEQ6uqlzh0fUssrb5CPA0oyVHIRa5CzeCEiQLVFPqYDDLJi1jpKsPUxR3PJprszYnNB62VLudgRCPdhlbptO7W89AZ56+pjryAJZ4S6oZR37oFSfp28Z88koUZjVmEBT0jJ/fDl1uhuaMyruL5Xopivx2TCb2zgXshffyPIUeZMWEYOCAKMQKizndrf2UoNv3oRNucTFA2GUgaMH5Se7e/spOYXXybP8eMpa3c6GsrhgJIVyzJqtcw4imKOZTZh1WwvLaHSRx8EFSVS84gIApMgEOrsoLZXX6e6v/sJ9ezjLNb6ekRwuLX3/CVqefENavjlMyDk14GRf5LrTfUhvgfLHntQM91pqvuXSHtiY44RPd5oKN50F/W8u50Gj8PWnKEMXTHCIsUnQIBtzv2ffEJ1PX1U8chm+ClvAH3p5ZRaE5wT69fsWhdC8Ej/iVPU9vI71HuAE9/2x1pNepVHZJ+7tpbYG8PiygxPjLEDIIp5LBoaP/NEqPjS58iPHHZDHAQgylkjcuYsFo2EaPD8afL+/XkkBHiLZv/B16hozQq1QWhllzhEAMYTQswr5Ei/h4LdPdT66rvU8e67FOruMgXI7MJa8aUnM1Ip8wBm9fV7MpPNROfpyRmPL/znv6S+vftoGBwEIoKAVgQ4Kau7ajZ4mR+mwhuXI1JwJlnhf8tRpkzmz0ElivR/lO8BP/wq4ARzjpCaK4p3tln3glO59aW3qO/wfooGAlqbT/tyjBHn5VxhOdU3AAAO0ElEQVT8T3+bse6ropjjnabI/jB47ASd//6fU6Qvwx8b48VIztOEQM6chYr3O29ZLbkRzp2NhK3O0qIrXBgRn5+89c2wH19ESqg2Gjx1lvoP7qehIJ7WTCgcml77//818ifOjetJIx0gE1NGvKOENEa8G1xw8wbq3fUBRf3JzeEWb7fkvPRDwFt/jnyNddT+JhjRsEpWqbH4MvCvEn6m5VUzm8wuvziprRlF7fHcc0dGK2UeV1HMicxuKOfKr32FfGADC4Agxqw3SyIQyrlAQJkqhq5AIbbFK1Bc9YFNPI7Kcir9/BMZu1IevWBxlxtFIs5318xqKr73TrLh8UpEEBAE9EOA7zG+11zVM/RrxCA1i2JOcCCYe5f9mpkHNhPddhKER04XBJKCAHPUuOfPVfeaVr7rpDQ8TZWIYk4C8Jx9ouSB+zKGcjAJkEgVgkBSEXCDZ7nyd76sOdNLUhufhspEMScJ9Lw1q6jg1g1kL9GWIihJzUo1gkDGI2AvKVGb7Jw2yiwiijlJI23Lz1MRgTlLFlEWkriKCAKCQOII8L2Us2QhFcETw0w0CKKYE587V2pww6+y6O474Itac+U7+SAICALxI8CEYcX33WM64jBxl4t/zlx3Jkdu5W9YR4FL9RTu6aUwQmVFBAFBID4EVHKK226m/JvWmY5qV1bM8c2ZCc+yFxdS0V0bKe/GG8RLY0KU5IAgMDkC7IXBBPhFd96uklRMXjrzjopi1mFMs5FNofjeuxDPv0DxHujQhFQpCGQsAhxIkl07n4o23qZc5DL2Qie5MDFlTAJOIofyblxNofYOvDop1NaeSFVyriBgKgTsyK9Z8sAmZcIw1YWPuVhZMY8BI5kfOf9Y3to1KoErp1YXEQQEgakR4HuFkx7zvZNJOfymvvKrS4hivhqPpP7HTvGlD95HBbx5AapCEUFAEJgYAb5H+F4pfXAz8b1jZhHFrPPouxfMhX/zneSoqsx44hWdoZTqMxkBJijCPcL3insaM4sbBWJRzDqPRJbNjgSua6n6D36PrEjmKiIICALXI+BALs3qP/x9da/wPWN2EcWcghnA5Eacm2zG738jBa1JE4JA+iFQ9uSjlLdqubiYXh46UcwpmsO2gnwqvGUDlT58f4palGYEgfRAgO+JYoRcc2YSkREERDGnaiYgM4WjqoIqnvqiCttOVbPSjiBgZASYwoDvCbUHAzuzyAgCgkQKZwLvOrtqqqnqG0/BgX6BbAamEHtpymAIYKHCSSaqvv6UuifEa+nq8RHFfDUeuv/HfBruObNp5h/9PtnLSolklaA75tKAwRDAnLeXllLN975D7rmzTceDoWU0RDFrQSnJZUZ4AFZR9b/+JjkrKyRsO8n4SnXGRYDDrXnOV3/7myqIhO8FkesRkJDs6zFJyTcW8MwyQctwOELtz7xAweYWGh76LCFnSjohjQgCKUSAzRVO5OtT+yyY+3wPiIyPgKyYx8clJd9yyCknlyx74hFyVJSLWSMlqEsj04IAVsq8+V3+pSfVnDdzuLUW/EUxa0FJxzLWnGwq3nwPlT7ywEjOQLE564i2VD0tCLD5AlF9PMdLMNd5zotMjoCYMibHJyVH2X+z9LEHaXh4mLrf3kqhllYajkZT0rY0IgjoiQDblB0zqqgEnDGsmK05Ev2qBW9ZMWtBKQVl7EVFVPbYQ5jAm9REFm+NFIAuTeiLwBWlvEnNbZ7jItoQEMWsDaeUlLIXs3J+WK0u+NFPlHNKYJdG9EDgsvmCV8o8p3lui2hHQEwZ2rFKSUmlnB9/CDShFup6YwuFWtvFWyMlyEsjyUKAvS94M5tDrdlEJyvl2JHN6uv3DMd+mpyhNwJDXi91v7udOp5/mYJNzWJz1htwqT8pCCg/ZUT0sacRb2oL/0V8sMqKOT7cdD+LN0lKNt+LlbON2p5+hoKcnko2BHXHXRpIAAG2KSN4hP2U2Q1UvC/ix1JszPFjp/uZypVu011U9a2vkb2kRLg1dEdcGogbAXBf2MGpzHO1GHNWlHLcSKoTxZSRGH4pOTsaCpHn4CfU+Df/QAGYNUQEAaMhwKRczP+Su3qVRPQlYXBEMScBxFRUMRwOk/9iPbX+8hnq3bE7FU1KG4KAJgSYurPqG19VefqE+0ITZFMWEsU8JUTGKTAciVCgsVlxa3S9+Y5xOiY9MS0C7HnBNmWms2XmRJHkICCKOTk4pqwWJjoKtbZRz/bd1Pny6xTq6pZNwZShLw0pBGBP5vyVnCqNs/IwB4bwKSd3bohiTi6eqakN3hnh3j7yfHqcmv/xp0pRCzNdaqA3eyvKRxnBT5xcmPNYcso0gqIWSS4C8uyRXDxTUxvckuwlxVitrCeLzUI923ZR/8cHaGhwMDXtSyumRMCam0sFN62D18WdKps1JxkW0QcBUcz64JqSWvnGKOBHyfJysoEIqe+Djyjc0SnBKClB3zyNcNCIvbyMCm+/hUof3EzuBXNgTxaCez1ngChmPdFNQd18g2QvXkhlUNKuWTOpe8s28p2rAwF/OAWtSxOZjgD/+GcvWoCAkbtUxhH3nFmZfsmGuD5RzIYYhsQ7wTeMA6sae3Ex9b7/IQ0ePkohrJ5FBIF4EWBzWd6Nq1UUH78LuX28SMZ+nmz+xY6Z4c/w112k3l0fUN+He8l/4RINI0BFRBDQikAWUj65Z9dQwc0bqOiujXgiq9V6qpRLEgKyYk4SkEaqxj1/rrIJumbVUM/W7eQ9dYbC3T1G6qL0xaAIcOh/zpKFxEEj+RvW4Qms0KA9zexuyYo5g8eXA1L8F7B6hs9z/9795L/UILbnDB7vRC6NbcnMAV5w602K68I9jzf4ZN2WCKaJnCuKORH00uTcaDBEg0ePU9uvnyM2c0TgAy2pq9Jk8HTuJntcsEdPzrIlVPLAfZS3ZhXZ8vN0blWqnwoBUcxTIZRBx8M9PdT1+tvU894uCrV1EHM+i5gXAYvbTc4ZlWpzr/RRENpj41jEGAiIYjbGOKSsF8ORIQo0t1DHi68oMqShAY9kSEkZ+gZoCFF6WXYbPCyy1eZe5de+Qi4Q22fZrAbonHRhFAFRzKNImO0dGbl9sD/X//D/U54b0WCQkKbbbCiY63qZ4yInm/Lh+lbxlS9Q7oplyCsp4dRGnASimI04KqnqExQxbxD2vf8RtT//W/KdPUdsjxbJPAQsTrjA1dZSxZeepKI7b6MsC1bIopQNO9CimA07NKnrGBPxRwMB8hw4TJ2vvUWDx09S1O9PXQekJd0QYM8K9rBgGzJnFmHvCwv8lEWMjYAoZmOPT0p7x8o5Apuz99hJ6n5nG3kQPSgbhCkdgqQ1xoT1HBhSsuluEA7dqNI+cR5JkfRAQBRzeoxTSns55PNTpKeXvKfPqg3CgQOfCHNdSkcg/saYAS5n6SJFOJS7agU5KkBwBe5kglucSPogIIo5fcYq5T1lBR3u6IDtuQ4BKvvIc+gIhTq7Ut4PaXBqBJwzZ1D+2htBNLRakVkxb4otL1cU8tTQGbKEKGZDDouxOhX1ByiIrCkBRA4OnjiFYJVj5D1+ylidNGlvsmvnK9a3vBtWkGvObKyQy8jidJoUjcy5bFHMmTOWul8Je3DwijnQ0ETek6cpBH/o/n0HldlDIgl1h3+kgcsub3k3rKS81SvJNXsWuebOAbNgqYRQp2gIUtGMKOZUoJxpbcDNLjLopTCUNK+cfefrwAF9Xq2oVcAKUl+JJA8BFTZdUACC+rkjihjMb9kLaxVPsvKwkNROyQPbIDWJYjbIQKRzN0LtneDguACSpHryn7+gFHQQq2n28BCJDwHOrcfBII6KCnLNm03ZC+ZBES+E/bhGmSviq1XOShcERDGny0ilST8Djc3kx+qZNwwD9Q3g5GhXhP2RgQEEswylyVVMTzc5LNpeXATXtlLFYeFEqLQbduPsRbXkrK5CKLWkc5qekUl9q6KYU4+5KVpU9uh2eHScOa9W06ywQ/ifeaEj/f1wvxMCJZ4IVriy2WCm4Gwh7NrGwSDqBU5t/l+oN01xu1x3kaKYr4NEvtADgSGfD2aOi4q0PwCTB6+mlb80KEj5PYrjGb+BCFuwxe0iOxSxBWYKe2EB8aqYvSlylixSNmQmFxIRBEQxyxxIOQKsgMPdvcR26MFjxymI1XSwsYkinkEoaD8NIQIxGgiqlFjDQ+lp/mAbMadoskIRqzBocFVY4VfsqKykXHAfO2uqKXflMsXyRrJ5l/I5aPQGRTEbfYRM0j8OBw+2tsM+XUf+i5eUS14IvtPKNh0KUzQcUYRLnP2bzSRGUdgjCtiuTA5ZVhtZQKmZ5bCDbD6fHMgI4p4HTwokymXeY/fc2UpJm2RI5TITQEAUcwLgyan6IsBKONTVrbw8lI0aG4m8smZf6jC+Hx6CWx5W38PDeMdnZQph6lL8P6ze0T/1DhY97upUbnwIW75CgsnMa1n4n1ez/ML/7LbGn0eY2XDMalEcFKOeEvayMnJhJcyK2FFaIpt1+k6PjK5dFHNGD28GXxwUbhCbiSoTC0wgbLMO9/ZSFFlZ2Ewy5IXNGoqdNxmHYBZhvukIjk8mtqKiK1FztvxcsuN/3pyz5maTNR8bdGWlZEfaJTs25RyV5eTEu5ghJkNUjsWLgCjmeJGT8wQBQUAQ0AkBoZzSCVipVhAQBASBeBEQxRwvcnKeICAICAI6ISCKWSdgpVpBQBAQBOJFQBRzvMjJeYKAICAI6ISAKGadgJVqBQFBQBCIFwFRzPEiJ+cJAoKAIKATAqKYdQJWqhUEBAFBIF4ERDHHi5ycJwgIAoKATgiIYtYJWKlWEBAEBIF4ERDFHC9ycp4gIAgIAjohIIpZJ2ClWkFAEBAE4kVAFHO8yMl5goAgIAjohIAoZp2AlWoFAUFAEIgXAVHM8SIn5wkCgoAgoBMCoph1AlaqFQQEAUEgXgREMceLnJwnCAgCgoBOCIhi1glYqVYQEAQEgXgREMUcL3JyniAgCAgCOiEgilknYKVaQUAQEATiRUAUc7zIyXmCgCAgCOiEgChmnYCVagUBQUAQiBcBUczxIifnCQKCgCCgEwL/B7/on9QBjd96AAAAAElFTkSuQmCC;" vertex="1" parent="1">
          <mxGeometry x="361" y="-260" width="259" height="211.25" as="geometry" />
        </mxCell>
        <mxCell id="o5mqcoUGSECQ9BWpFlMJ-6" value="ENDEVOR WS" style="text;strokeColor=none;fillColor=none;align=left;verticalAlign=middle;spacingLeft=4;spacingRight=4;overflow=hidden;points=[[0,0.5],[1,0.5]];portConstraint=eastwest;rotatable=0;whiteSpace=wrap;html=1;" vertex="1" parent="1">
          <mxGeometry x="450.5" y="-48.75" width="119.5" height="30" as="geometry" />
        </mxCell>
        <mxCell id="o5mqcoUGSECQ9BWpFlMJ-7" value="BRIDGE FOR GIT" style="text;strokeColor=none;fillColor=none;align=left;verticalAlign=middle;spacingLeft=4;spacingRight=4;overflow=hidden;points=[[0,0.5],[1,0.5]];portConstraint=eastwest;rotatable=0;whiteSpace=wrap;html=1;" vertex="1" parent="1">
          <mxGeometry x="450.5" y="340" width="129.5" height="30" as="geometry" />
        </mxCell>
        <mxCell id="o5mqcoUGSECQ9BWpFlMJ-11" value="" style="shape=flexArrow;endArrow=classic;startArrow=classic;html=1;rounded=0;entryX=0.996;entryY=0.013;entryDx=0;entryDy=0;entryPerimeter=0;" edge="1" parent="1" target="o5mqcoUGSECQ9BWpFlMJ-6">
          <mxGeometry width="100" height="100" relative="1" as="geometry">
            <mxPoint x="570" y="90" as="sourcePoint" />
            <mxPoint x="670" y="-10" as="targetPoint" />
          </mxGeometry>
        </mxCell>
        <mxCell id="o5mqcoUGSECQ9BWpFlMJ-12" value="Mainframe" style="text;strokeColor=none;fillColor=none;align=left;verticalAlign=middle;spacingLeft=4;spacingRight=4;overflow=hidden;points=[[0,0.5],[1,0.5]];portConstraint=eastwest;rotatable=0;whiteSpace=wrap;html=1;" vertex="1" parent="1">
          <mxGeometry x="455.5" y="400" width="80" height="30" as="geometry" />
        </mxCell>
        <mxCell id="o5mqcoUGSECQ9BWpFlMJ-13" value="Git" style="text;strokeColor=none;fillColor=none;align=left;verticalAlign=middle;spacingLeft=4;spacingRight=4;overflow=hidden;points=[[0,0.5],[1,0.5]];portConstraint=eastwest;rotatable=0;whiteSpace=wrap;html=1;" vertex="1" parent="1">
          <mxGeometry x="1577" y="160" width="80" height="30" as="geometry" />
        </mxCell>
        <mxCell id="o5mqcoUGSECQ9BWpFlMJ-14" value="" style="shape=flexArrow;endArrow=classic;startArrow=classic;html=1;rounded=0;" edge="1" parent="1" source="o5mqcoUGSECQ9BWpFlMJ-3">
          <mxGeometry width="100" height="100" relative="1" as="geometry">
            <mxPoint x="847" y="420" as="sourcePoint" />
            <mxPoint x="1257" as="targetPoint" />
          </mxGeometry>
        </mxCell>
        <mxCell id="o5mqcoUGSECQ9BWpFlMJ-15" value="Port du Bridge" style="text;strokeColor=none;fillColor=none;align=left;verticalAlign=middle;spacingLeft=4;spacingRight=4;overflow=hidden;points=[[0,0.5],[1,0.5]];portConstraint=eastwest;rotatable=0;whiteSpace=wrap;html=1;" vertex="1" parent="1">
          <mxGeometry x="650" y="190" width="80" height="30" as="geometry" />
        </mxCell>
        <mxCell id="o5mqcoUGSECQ9BWpFlMJ-16" value="port 433 du git server&amp;nbsp;" style="text;strokeColor=none;fillColor=none;align=left;verticalAlign=middle;spacingLeft=4;spacingRight=4;overflow=hidden;points=[[0,0.5],[1,0.5]];portConstraint=eastwest;rotatable=0;whiteSpace=wrap;html=1;" vertex="1" parent="1">
          <mxGeometry x="1200" y="50" width="80" height="30" as="geometry" />
        </mxCell>
      </root>
    </mxGraphModel>
  </diagram>
</mxfile>
